<svg id="svg" version="1.1" xmlns="http://www.w3.org/2000/svg" xmlns:xlink="http://www.w3.org/1999/xlink" width="400" height="78.96995708154506" viewBox="0, 0, 400,78.96995708154506"><g id="svgg"><path id="path0" d="M338.667 36.833 L 338.667 59.500 339.083 59.500 C 339.472 59.500,339.500 59.556,339.500 60.330 C 339.500 61.077,339.542 61.171,339.917 61.265 C 340.216 61.340,340.333 61.482,340.333 61.768 C 340.333 62.009,340.431 62.167,340.579 62.167 C 340.715 62.167,340.949 62.354,341.099 62.583 C 341.260 62.829,341.530 63.000,341.758 63.000 C 342.031 63.000,342.159 63.109,342.197 63.375 C 342.242 63.692,342.367 63.758,343.005 63.799 C 343.598 63.838,343.796 63.928,343.922 64.216 C 344.083 64.582,344.104 64.583,348.583 64.583 L 353.083 64.583 353.136 64.215 C 353.184 63.877,353.292 63.843,354.469 63.798 C 355.653 63.754,355.754 63.722,355.803 63.375 C 355.850 63.044,355.953 63.000,356.678 63.000 L 357.500 63.000 357.500 61.351 C 357.500 59.732,357.493 59.701,357.083 59.598 L 356.667 59.494 356.664 57.372 C 356.661 54.400,356.708 54.500,355.314 54.500 C 354.201 54.500,354.167 54.513,354.167 54.917 L 354.167 55.333 352.428 55.333 C 350.752 55.333,350.688 55.320,350.637 54.958 C 350.602 54.717,350.449 54.564,350.208 54.530 C 349.938 54.492,349.833 54.365,349.833 54.075 C 349.833 53.785,349.717 53.644,349.417 53.568 L 349.000 53.464 349.000 33.815 L 349.000 14.167 343.833 14.167 L 338.667 14.167 338.667 36.833 M385.000 22.750 L 385.000 31.333 384.583 31.333 C 384.250 31.333,384.167 31.250,384.167 30.917 C 384.167 30.583,384.083 30.500,383.750 30.500 C 383.439 30.500,383.333 30.412,383.333 30.152 C 383.333 29.919,383.169 29.742,382.833 29.616 C 382.554 29.510,382.333 29.305,382.333 29.150 C 382.333 28.855,381.876 28.673,381.125 28.669 C 380.835 28.668,380.667 28.577,380.667 28.423 C 380.667 28.043,380.108 27.833,379.097 27.833 C 378.250 27.833,378.164 27.798,378.068 27.417 L 377.964 27.000 373.895 27.000 L 369.826 27.000 369.636 27.417 C 369.483 27.752,369.326 27.833,368.827 27.833 C 367.804 27.833,367.184 28.018,367.077 28.353 C 367.016 28.547,366.823 28.667,366.572 28.667 C 366.251 28.667,366.167 28.753,366.167 29.083 C 366.167 29.450,366.095 29.500,365.572 29.500 C 364.809 29.500,364.333 29.758,364.333 30.173 C 364.333 30.411,364.220 30.500,363.917 30.500 C 363.583 30.500,363.500 30.583,363.500 30.917 C 363.500 31.250,363.417 31.333,363.083 31.333 C 362.750 31.333,362.667 31.417,362.667 31.750 C 362.667 32.083,362.583 32.167,362.250 32.167 C 361.920 32.167,361.833 32.251,361.833 32.572 C 361.833 32.865,361.730 32.992,361.458 33.030 C 361.138 33.076,361.076 33.199,361.033 33.875 C 360.987 34.590,360.942 34.667,360.574 34.667 C 360.210 34.667,360.167 34.738,360.167 35.328 C 360.167 35.870,360.076 36.057,359.667 36.360 C 359.248 36.669,359.167 36.844,359.167 37.436 C 359.167 38.043,359.113 38.151,358.792 38.197 C 358.445 38.246,358.413 38.346,358.368 39.541 C 358.326 40.649,358.260 40.895,357.902 41.282 L 357.485 41.732 357.534 46.048 C 357.582 50.266,357.592 50.370,357.951 50.660 C 358.259 50.910,358.326 51.155,358.367 52.187 C 358.413 53.318,358.447 53.421,358.792 53.470 C 359.113 53.516,359.167 53.624,359.167 54.228 C 359.167 54.985,359.387 55.333,359.867 55.333 C 360.116 55.333,360.167 55.475,360.167 56.167 C 360.167 56.939,360.196 57.000,360.574 57.000 C 360.934 57.000,360.987 57.082,361.032 57.708 C 361.072 58.255,361.169 58.454,361.458 58.581 C 361.688 58.682,361.833 58.892,361.833 59.123 C 361.833 59.414,361.928 59.500,362.250 59.500 C 362.583 59.500,362.667 59.583,362.667 59.917 C 362.667 60.250,362.750 60.333,363.083 60.333 C 363.390 60.333,363.500 60.422,363.500 60.670 C 363.500 60.868,363.672 61.086,363.917 61.197 C 364.146 61.301,364.333 61.444,364.333 61.515 C 364.333 61.846,364.914 62.167,365.512 62.167 C 366.099 62.167,366.167 62.210,366.167 62.583 C 366.167 62.972,366.222 63.000,367.000 63.000 C 367.778 63.000,367.833 63.028,367.833 63.417 C 367.833 63.812,367.882 63.833,368.768 63.833 C 369.567 63.833,369.750 63.894,370.032 64.253 L 370.362 64.672 375.056 64.628 L 379.750 64.583 379.803 64.208 C 379.852 63.868,379.947 63.833,380.831 63.833 C 382.021 63.833,382.333 63.726,382.333 63.316 C 382.333 63.094,382.452 63.000,382.731 63.000 C 382.968 63.000,383.236 62.836,383.394 62.594 C 383.568 62.329,383.849 62.170,384.205 62.136 C 384.576 62.100,384.801 61.966,384.912 61.715 C 385.000 61.513,385.225 61.325,385.412 61.298 C 385.641 61.266,385.767 61.103,385.803 60.792 C 385.880 60.119,386.666 60.119,386.669 60.792 C 386.673 61.555,386.855 62.000,387.165 62.000 C 387.358 62.000,387.493 62.172,387.558 62.500 C 387.638 62.897,387.745 63.000,388.079 63.000 C 388.417 63.000,388.500 63.082,388.500 63.417 C 388.500 63.806,388.556 63.833,389.333 63.833 C 390.116 63.833,390.167 63.859,390.167 64.259 L 390.167 64.685 393.742 64.634 C 396.395 64.596,397.373 64.528,397.534 64.367 C 397.862 64.038,397.945 55.333,397.619 55.333 C 397.493 55.333,397.289 55.146,397.167 54.917 C 397.033 54.667,396.797 54.500,396.580 54.500 C 396.020 54.500,396.000 53.773,396.000 33.231 C 396.000 14.894,395.993 14.508,395.678 14.339 C 395.475 14.231,393.428 14.167,390.178 14.167 L 385.000 14.167 385.000 22.750 M253.667 39.417 L 253.667 63.835 268.625 63.793 L 283.583 63.750 283.637 63.375 C 283.684 63.042,283.786 63.000,284.553 62.998 C 285.710 62.995,286.167 62.854,286.167 62.502 C 286.167 62.290,286.348 62.180,286.824 62.104 C 287.187 62.046,287.581 61.857,287.703 61.683 C 287.825 61.509,288.111 61.340,288.337 61.308 C 288.646 61.265,288.763 61.134,288.803 60.792 C 288.844 60.432,288.942 60.333,289.261 60.333 C 289.583 60.333,289.667 60.247,289.667 59.917 C 289.667 59.583,289.750 59.500,290.083 59.500 C 290.417 59.500,290.500 59.417,290.500 59.083 C 290.500 58.750,290.583 58.667,290.917 58.667 C 291.269 58.667,291.333 58.589,291.333 58.167 C 291.333 57.786,291.409 57.667,291.650 57.667 C 292.026 57.667,292.333 56.916,292.333 56.002 C 292.333 55.508,292.415 55.350,292.750 55.197 L 293.167 55.007 293.164 51.295 C 293.162 47.244,293.123 46.904,292.651 46.781 C 292.399 46.715,292.333 46.546,292.333 45.964 C 292.333 45.341,292.257 45.173,291.833 44.860 C 291.445 44.572,291.333 44.361,291.333 43.912 C 291.333 43.406,291.281 43.333,290.917 43.333 C 290.558 43.333,290.500 43.258,290.497 42.792 C 290.494 42.077,290.361 41.898,289.601 41.580 C 289.250 41.434,288.926 41.168,288.879 40.990 C 288.825 40.784,288.650 40.667,288.397 40.667 C 288.085 40.667,288.000 40.578,288.000 40.250 C 288.000 39.898,287.922 39.833,287.500 39.833 C 287.113 39.833,287.000 39.759,287.000 39.503 C 287.000 39.296,286.855 39.137,286.609 39.075 C 286.136 38.956,286.178 38.167,286.656 38.167 C 287.075 38.167,288.000 37.275,288.000 36.872 C 288.000 36.637,288.123 36.506,288.375 36.470 C 288.644 36.432,288.765 36.287,288.803 35.958 C 288.844 35.598,288.942 35.500,289.261 35.500 C 289.636 35.500,289.667 35.438,289.667 34.678 C 289.667 33.953,289.711 33.850,290.042 33.803 C 290.395 33.753,290.421 33.656,290.500 32.083 C 290.579 30.511,290.605 30.414,290.958 30.363 C 291.328 30.311,291.333 30.275,291.333 27.822 L 291.333 25.333 290.917 25.333 C 290.507 25.333,290.500 25.311,290.500 24.000 C 290.500 22.689,290.493 22.667,290.083 22.667 C 289.694 22.667,289.667 22.611,289.667 21.833 C 289.667 21.056,289.639 21.000,289.250 21.000 C 288.861 21.000,288.833 20.944,288.833 20.167 C 288.833 19.389,288.806 19.333,288.417 19.333 C 288.083 19.333,288.000 19.250,288.000 18.917 C 288.000 18.588,287.915 18.500,287.601 18.500 C 287.315 18.500,287.173 18.382,287.098 18.083 C 287.030 17.812,286.877 17.667,286.659 17.667 C 286.459 17.667,286.264 17.505,286.171 17.261 C 286.050 16.944,285.854 16.832,285.258 16.743 C 284.602 16.644,284.500 16.575,284.500 16.231 C 284.500 15.868,284.432 15.833,283.706 15.833 C 283.043 15.833,282.885 15.772,282.748 15.458 L 282.583 15.083 268.125 15.041 L 253.667 14.998 253.667 39.417 M276.143 24.846 C 276.351 25.103,276.686 25.215,277.453 25.285 C 278.339 25.365,278.490 25.427,278.533 25.731 C 278.563 25.940,278.725 26.104,278.932 26.133 C 279.202 26.172,279.314 26.359,279.432 26.966 C 279.554 27.596,279.657 27.760,279.958 27.803 C 280.325 27.855,280.333 27.904,280.333 30.001 L 280.333 32.145 279.875 32.197 C 279.547 32.235,279.402 32.356,279.363 32.625 C 279.334 32.831,279.201 33.000,279.068 33.000 C 278.935 33.000,278.743 33.184,278.640 33.408 C 278.538 33.633,278.296 33.839,278.102 33.866 C 277.884 33.898,277.730 34.059,277.697 34.292 L 277.643 34.667 270.822 34.667 L 264.000 34.667 264.000 29.583 L 264.000 24.500 269.932 24.500 C 275.733 24.500,275.869 24.508,276.143 24.846 M310.065 27.163 C 309.871 27.241,309.667 27.424,309.612 27.569 C 309.534 27.773,309.262 27.833,308.434 27.833 C 307.396 27.833,306.833 28.072,306.833 28.512 C 306.833 28.597,306.577 28.667,306.264 28.667 C 305.487 28.667,305.167 28.813,305.167 29.169 C 305.167 29.402,304.982 29.494,304.333 29.583 C 303.596 29.685,303.500 29.744,303.500 30.099 C 303.500 30.416,303.412 30.500,303.083 30.500 C 302.750 30.500,302.667 30.583,302.667 30.917 C 302.667 31.269,302.589 31.333,302.167 31.333 C 301.744 31.333,301.667 31.398,301.667 31.750 C 301.667 32.083,301.583 32.167,301.250 32.167 C 300.917 32.167,300.833 32.250,300.833 32.583 C 300.833 32.917,300.750 33.000,300.417 33.000 C 300.083 33.000,300.000 33.083,300.000 33.417 C 300.000 33.750,299.917 33.833,299.583 33.833 C 299.255 33.833,299.167 33.918,299.167 34.232 C 299.167 34.518,299.049 34.660,298.750 34.735 C 298.375 34.829,298.333 34.923,298.333 35.670 C 298.333 36.444,298.305 36.500,297.917 36.500 C 297.528 36.500,297.500 36.556,297.500 37.333 C 297.500 38.099,297.468 38.167,297.105 38.167 C 296.659 38.167,296.505 38.706,296.502 40.288 C 296.500 41.032,296.439 41.199,296.083 41.432 L 295.667 41.705 295.667 45.665 C 295.667 50.034,295.732 50.671,296.192 50.792 C 296.437 50.856,296.500 51.034,296.500 51.665 C 296.500 53.020,296.656 53.500,297.095 53.500 C 297.445 53.500,297.487 53.585,297.533 54.375 C 297.576 55.131,297.633 55.257,297.950 55.302 C 298.259 55.346,298.324 55.477,298.366 56.135 C 298.409 56.800,298.473 56.925,298.792 56.970 C 299.063 57.008,299.167 57.135,299.167 57.428 C 299.167 57.743,299.254 57.833,299.562 57.833 C 299.894 57.833,299.974 57.940,300.063 58.495 C 300.135 58.943,300.290 59.220,300.543 59.353 C 300.748 59.461,301.096 59.726,301.314 59.941 C 301.533 60.157,301.883 60.333,302.093 60.333 C 302.380 60.333,302.500 60.456,302.583 60.833 C 302.667 61.216,302.785 61.333,303.085 61.333 C 303.364 61.333,303.492 61.441,303.530 61.708 C 303.576 62.028,303.699 62.091,304.375 62.134 C 305.090 62.180,305.167 62.225,305.167 62.592 C 305.167 62.937,305.246 63.000,305.684 63.000 C 306.038 63.000,306.306 63.132,306.530 63.417 C 306.830 63.799,306.968 63.833,308.179 63.833 C 309.477 63.833,309.500 63.841,309.500 64.250 L 309.500 64.667 314.982 64.667 L 320.464 64.667 320.567 64.257 C 320.662 63.876,320.752 63.845,321.876 63.799 C 322.984 63.754,323.088 63.719,323.137 63.375 C 323.184 63.044,323.286 63.000,324.012 63.000 C 324.777 63.000,324.833 62.971,324.833 62.583 C 324.833 62.210,324.901 62.167,325.488 62.167 C 326.097 62.167,326.667 61.844,326.667 61.500 C 326.667 61.421,326.835 61.333,327.042 61.303 C 327.310 61.265,327.432 61.120,327.469 60.792 C 327.511 60.432,327.609 60.333,327.928 60.333 C 328.249 60.333,328.333 60.247,328.333 59.917 C 328.333 59.583,328.417 59.500,328.750 59.500 C 329.083 59.500,329.167 59.417,329.167 59.083 C 329.167 58.750,329.250 58.667,329.583 58.667 C 329.917 58.667,330.000 58.583,330.000 58.250 C 330.000 57.917,330.083 57.833,330.417 57.833 C 330.766 57.833,330.833 57.755,330.833 57.345 C 330.833 57.016,330.934 56.824,331.141 56.758 C 331.477 56.651,331.833 56.004,331.833 55.500 C 331.833 55.326,331.935 55.123,332.059 55.050 C 332.440 54.825,332.667 54.224,332.667 53.439 C 332.667 52.789,332.716 52.683,333.042 52.637 C 333.399 52.586,333.419 52.503,333.464 50.877 C 333.507 49.325,333.549 49.131,333.927 48.723 C 334.537 48.065,334.496 43.452,333.880 43.364 C 333.524 43.313,333.508 43.235,333.463 41.281 C 333.419 39.369,333.395 39.241,333.049 39.089 C 332.761 38.962,332.671 38.764,332.633 38.172 C 332.591 37.534,332.525 37.408,332.208 37.363 C 331.887 37.318,331.833 37.209,331.833 36.605 C 331.833 35.848,331.613 35.500,331.133 35.500 C 330.894 35.500,330.833 35.364,330.833 34.830 C 330.833 34.277,330.761 34.126,330.417 33.970 C 330.145 33.846,330.000 33.644,330.000 33.390 C 330.000 33.085,329.909 33.000,329.583 33.000 C 329.250 33.000,329.167 32.917,329.167 32.583 C 329.167 32.250,329.083 32.167,328.750 32.167 C 328.417 32.167,328.333 32.083,328.333 31.750 C 328.333 31.422,328.249 31.333,327.935 31.333 C 327.649 31.333,327.507 31.216,327.432 30.917 C 327.349 30.589,327.221 30.500,326.830 30.500 C 326.503 30.500,326.333 30.416,326.333 30.254 C 326.333 29.998,325.526 29.500,325.111 29.500 C 324.980 29.500,324.834 29.354,324.787 29.175 C 324.722 28.927,324.499 28.823,323.851 28.737 C 323.288 28.662,323.000 28.545,323.000 28.391 C 323.000 28.030,322.261 27.833,320.906 27.833 C 319.695 27.833,319.667 27.824,319.667 27.417 L 319.667 27.000 315.042 27.011 C 312.498 27.016,310.258 27.085,310.065 27.163 M317.247 36.824 C 317.320 37.055,317.563 37.181,318.082 37.259 C 318.662 37.345,318.825 37.443,318.866 37.726 C 318.901 37.973,319.054 38.099,319.365 38.135 C 319.678 38.171,319.828 38.296,319.865 38.552 C 319.898 38.783,320.054 38.936,320.292 38.970 C 320.563 39.008,320.667 39.135,320.667 39.428 C 320.667 39.749,320.753 39.833,321.083 39.833 C 321.447 39.833,321.500 39.906,321.500 40.403 C 321.500 41.184,321.647 41.500,322.009 41.500 C 322.256 41.500,322.325 41.653,322.366 42.292 C 322.409 42.967,322.472 43.091,322.792 43.137 C 323.279 43.206,323.398 48.500,322.913 48.500 C 322.599 48.500,322.333 49.161,322.333 49.939 C 322.333 50.512,322.032 51.000,321.679 51.000 C 321.580 51.000,321.500 51.179,321.500 51.399 C 321.500 51.685,321.382 51.827,321.083 51.902 C 320.779 51.978,320.667 52.118,320.667 52.420 C 320.667 52.717,320.576 52.833,320.345 52.833 C 320.167 52.833,319.980 52.967,319.928 53.130 C 319.877 53.293,319.609 53.512,319.334 53.615 C 318.998 53.742,318.833 53.919,318.833 54.152 C 318.833 54.412,318.728 54.500,318.417 54.500 C 318.083 54.500,318.000 54.583,318.000 54.917 L 318.000 55.333 315.000 55.333 L 312.000 55.333 312.000 54.917 C 312.000 54.588,311.915 54.500,311.601 54.500 C 311.318 54.500,311.173 54.383,311.101 54.093 C 311.018 53.763,310.859 53.666,310.259 53.576 C 309.672 53.488,309.508 53.391,309.468 53.107 C 309.436 52.884,309.276 52.730,309.042 52.697 C 308.738 52.654,308.667 52.537,308.667 52.085 C 308.667 51.277,308.516 51.000,308.075 51.000 C 307.728 51.000,307.679 50.913,307.634 50.208 C 307.591 49.533,307.528 49.409,307.208 49.363 L 306.833 49.310 306.833 45.822 L 306.833 42.333 307.250 42.333 C 307.638 42.333,307.667 42.277,307.667 41.511 C 307.667 40.738,307.694 40.686,308.125 40.636 C 308.453 40.598,308.598 40.477,308.637 40.208 C 308.666 40.002,308.835 39.755,309.012 39.660 C 309.189 39.566,309.333 39.387,309.333 39.262 C 309.333 39.138,309.516 38.990,309.739 38.934 C 309.962 38.878,310.190 38.687,310.247 38.510 C 310.303 38.333,310.514 38.164,310.716 38.136 C 310.943 38.103,311.103 37.947,311.134 37.726 C 311.175 37.443,311.338 37.345,311.918 37.259 C 312.437 37.181,312.680 37.055,312.753 36.824 C 312.848 36.525,313.022 36.500,315.000 36.500 C 316.978 36.500,317.152 36.525,317.247 36.824 M379.000 36.816 C 379.000 37.185,379.311 37.333,380.085 37.333 C 380.537 37.333,380.654 37.405,380.697 37.708 C 380.731 37.952,380.884 38.102,381.134 38.138 C 381.356 38.169,381.583 38.362,381.672 38.596 C 381.762 38.833,381.959 39.000,382.151 39.000 C 382.362 39.000,382.496 39.132,382.530 39.375 C 382.564 39.612,382.717 39.769,382.948 39.802 C 383.175 39.834,383.332 39.991,383.365 40.219 C 383.398 40.449,383.554 40.603,383.792 40.637 C 384.049 40.673,384.167 40.804,384.169 41.053 C 384.173 41.709,384.364 42.154,384.685 42.256 C 384.983 42.351,385.000 42.584,385.000 46.678 L 385.000 51.000 384.583 51.000 C 384.251 51.000,384.167 51.084,384.167 51.413 C 384.167 51.716,384.054 51.855,383.750 51.932 C 383.500 51.994,383.333 52.155,383.333 52.333 C 383.333 52.511,383.166 52.672,382.917 52.735 C 382.658 52.800,382.500 52.958,382.500 53.152 C 382.500 53.345,382.342 53.503,382.086 53.568 C 381.833 53.631,381.632 53.830,381.570 54.077 C 381.483 54.424,381.355 54.490,380.692 54.533 C 380.033 54.576,379.909 54.640,379.863 54.958 C 379.795 55.437,374.500 55.566,374.500 55.089 C 374.500 54.782,373.987 54.500,373.428 54.500 C 373.081 54.500,373.000 54.420,373.000 54.079 C 373.000 53.745,372.897 53.638,372.500 53.558 C 372.160 53.490,372.000 53.359,372.000 53.149 C 372.000 52.960,371.842 52.800,371.593 52.738 C 371.345 52.675,371.166 52.495,371.135 52.276 C 371.102 52.051,370.944 51.897,370.708 51.863 C 370.446 51.826,370.333 51.697,370.333 51.433 C 370.333 51.202,370.173 50.970,369.917 50.833 C 369.596 50.662,369.500 50.478,369.500 50.037 C 369.500 49.624,369.383 49.373,369.079 49.134 L 368.659 48.803 368.704 46.026 C 368.749 43.290,368.755 43.249,369.125 43.197 C 369.455 43.150,369.500 43.047,369.500 42.333 C 369.500 41.620,369.545 41.517,369.875 41.470 C 370.195 41.424,370.257 41.301,370.301 40.625 C 370.347 39.910,370.391 39.833,370.759 39.833 C 371.083 39.833,371.167 39.748,371.167 39.417 C 371.167 39.084,371.250 39.000,371.580 39.000 C 371.880 39.000,372.022 38.888,372.096 38.593 C 372.158 38.345,372.339 38.166,372.557 38.135 C 372.777 38.103,372.937 37.944,372.968 37.726 C 373.008 37.441,373.173 37.345,373.778 37.254 C 374.330 37.172,374.561 37.053,374.622 36.820 C 374.750 36.330,379.000 36.325,379.000 36.816 M279.402 44.583 C 279.478 44.888,279.618 45.000,279.920 45.000 C 280.250 45.000,280.333 45.084,280.333 45.417 C 280.333 45.747,280.417 45.833,280.740 45.833 C 281.100 45.833,281.153 45.916,281.199 46.542 C 281.238 47.089,281.335 47.287,281.625 47.415 C 281.986 47.573,282.000 47.660,282.000 49.706 L 282.000 51.833 281.583 51.833 C 281.253 51.833,281.167 51.917,281.167 52.238 C 281.167 52.532,281.063 52.658,280.792 52.697 C 280.551 52.731,280.398 52.884,280.363 53.125 C 280.325 53.395,280.198 53.500,279.908 53.500 C 279.623 53.500,279.477 53.616,279.406 53.899 C 279.259 54.484,279.036 54.500,271.146 54.500 L 264.000 54.500 264.000 49.333 L 264.000 44.167 271.649 44.167 L 279.297 44.167 279.402 44.583 " stroke="none" fill="#fcfcfc" fill-rule="evenodd"></path><path id="path1" d="M101.944 14.278 C 101.883 14.339,101.833 14.521,101.833 14.683 C 101.833 14.881,101.682 14.995,101.375 15.031 C 101.051 15.068,100.901 15.190,100.865 15.448 C 100.832 15.675,100.675 15.832,100.448 15.865 C 100.221 15.897,100.064 16.054,100.031 16.281 C 99.999 16.509,99.842 16.666,99.615 16.698 C 99.388 16.730,99.230 16.888,99.198 17.115 C 99.166 17.342,99.009 17.499,98.781 17.531 C 98.526 17.568,98.401 17.718,98.365 18.033 C 98.318 18.441,98.241 18.487,97.532 18.533 L 96.752 18.583 96.608 19.375 C 96.408 20.472,96.564 21.000,97.087 21.000 C 97.418 21.000,97.500 21.084,97.500 21.423 L 97.500 21.845 99.125 21.798 C 100.667 21.752,100.753 21.731,100.803 21.375 C 100.842 21.104,100.968 21.000,101.262 21.000 C 101.577 21.000,101.667 20.912,101.667 20.602 C 101.667 20.257,101.768 20.189,102.436 20.089 C 102.986 20.007,103.228 19.886,103.286 19.663 C 103.331 19.492,103.528 19.329,103.725 19.301 C 103.922 19.273,104.157 19.081,104.248 18.875 C 104.493 18.317,105.556 18.343,105.932 18.917 C 106.082 19.146,106.341 19.333,106.508 19.333 C 106.694 19.333,106.831 19.477,106.863 19.708 C 106.901 19.974,107.047 20.098,107.365 20.135 C 107.678 20.171,107.828 20.296,107.865 20.552 C 107.909 20.860,108.040 20.925,108.708 20.967 C 109.423 21.013,109.500 21.058,109.500 21.426 C 109.500 21.822,109.535 21.833,110.750 21.833 C 111.528 21.833,112.000 21.766,112.000 21.655 C 112.000 21.371,112.447 21.000,112.790 21.000 C 113.683 21.000,114.071 19.486,113.208 19.363 C 112.937 19.325,112.833 19.198,112.833 18.905 C 112.833 18.584,112.747 18.500,112.417 18.500 C 112.083 18.500,112.000 18.417,112.000 18.083 C 112.000 17.776,111.911 17.667,111.663 17.667 C 111.456 17.667,111.264 17.505,111.167 17.250 C 111.080 17.021,110.905 16.833,110.779 16.833 C 110.653 16.833,110.314 16.608,110.026 16.333 C 109.737 16.057,109.321 15.833,109.096 15.833 C 108.802 15.833,108.675 15.730,108.637 15.458 C 108.598 15.190,108.453 15.068,108.125 15.031 C 107.765 14.989,107.667 14.891,107.667 14.572 L 107.667 14.167 104.861 14.167 C 103.318 14.167,102.006 14.217,101.944 14.278 M203.872 17.958 L 203.917 21.750 206.227 21.796 C 209.256 21.857,209.000 22.226,209.000 17.813 L 209.000 14.167 206.414 14.167 L 203.827 14.167 203.872 17.958 M20.278 15.111 C 20.217 15.172,20.167 15.542,20.167 15.933 C 20.167 16.543,20.114 16.651,19.792 16.697 C 19.466 16.743,19.410 16.863,19.367 17.615 C 19.324 18.360,19.266 18.486,18.950 18.531 C 18.624 18.577,18.578 18.697,18.534 19.601 C 18.492 20.485,18.432 20.647,18.076 20.837 C 17.729 21.023,17.667 21.178,17.667 21.850 C 17.667 22.546,17.621 22.650,17.292 22.697 C 16.982 22.741,16.890 22.901,16.763 23.613 C 16.660 24.193,16.518 24.500,16.330 24.549 C 16.027 24.628,15.833 25.329,15.833 26.343 C 15.833 26.873,15.772 26.985,15.458 27.030 C 15.140 27.075,15.076 27.200,15.033 27.859 C 14.990 28.524,14.925 28.649,14.575 28.737 C 14.213 28.828,14.167 28.930,14.167 29.630 C 14.167 30.290,14.105 30.448,13.792 30.585 C 13.464 30.729,13.410 30.893,13.367 31.875 C 13.321 32.945,13.298 33.000,12.909 33.000 C 12.530 33.000,12.500 33.060,12.500 33.822 C 12.500 34.547,12.456 34.650,12.125 34.697 C 11.799 34.743,11.743 34.863,11.700 35.609 C 11.657 36.348,11.596 36.481,11.264 36.565 C 10.863 36.666,10.673 37.268,10.669 38.447 C 10.667 38.869,10.590 38.988,10.292 39.030 C 9.975 39.075,9.909 39.200,9.867 39.839 C 9.829 40.431,9.739 40.629,9.451 40.755 C 9.167 40.880,9.071 41.083,9.031 41.649 C 8.995 42.148,8.867 42.471,8.627 42.666 C 8.357 42.884,8.257 43.191,8.201 43.975 C 8.132 44.923,8.097 45.000,7.730 45.000 C 7.366 45.000,7.333 45.068,7.333 45.815 C 7.333 46.546,7.290 46.641,6.917 46.735 C 6.547 46.828,6.500 46.927,6.500 47.609 C 6.500 48.216,6.412 48.460,6.083 48.765 C 5.803 49.025,5.666 49.330,5.664 49.700 C 5.661 50.555,5.490 51.000,5.165 51.000 C 4.813 51.000,4.667 51.322,4.667 52.097 C 4.667 52.410,4.597 52.667,4.512 52.667 C 4.129 52.667,3.833 53.231,3.828 53.970 C 3.823 54.749,3.549 55.333,3.190 55.333 C 3.073 55.333,3.000 55.654,3.000 56.167 C 3.000 56.944,2.972 57.000,2.583 57.000 C 2.196 57.000,2.167 57.057,2.167 57.807 C 2.167 58.505,2.111 58.639,1.750 58.803 C 1.363 58.979,1.333 59.077,1.333 60.163 C 1.333 61.300,1.322 61.333,0.917 61.333 C 0.509 61.333,0.500 61.361,0.500 62.583 L 0.500 63.833 3.000 63.833 L 5.500 63.833 5.500 63.435 C 5.500 63.154,5.617 63.007,5.895 62.937 C 6.297 62.836,6.494 62.326,6.505 61.354 C 6.511 60.871,6.847 60.333,7.143 60.333 C 7.260 60.333,7.333 60.015,7.333 59.512 C 7.333 58.786,7.377 58.684,7.708 58.637 C 8.026 58.591,8.091 58.467,8.133 57.815 C 8.174 57.186,8.257 57.012,8.592 56.860 C 8.969 56.688,9.000 56.584,9.000 55.504 C 9.000 54.366,9.012 54.333,9.417 54.333 C 9.806 54.333,9.833 54.278,9.833 53.500 C 9.833 52.722,9.861 52.667,10.250 52.667 C 10.643 52.667,10.667 52.616,10.667 51.762 C 10.667 50.955,10.707 50.851,11.035 50.803 C 11.459 50.742,11.626 50.288,11.650 49.125 L 11.667 48.333 22.333 48.333 C 32.927 48.333,33.000 48.336,33.000 48.670 C 33.000 48.868,33.172 49.086,33.417 49.197 C 33.704 49.328,33.834 49.521,33.836 49.818 C 33.839 50.553,34.012 50.950,34.423 51.170 C 34.763 51.352,34.826 51.525,34.868 52.399 C 34.912 53.310,34.956 53.422,35.292 53.470 C 35.622 53.517,35.667 53.620,35.667 54.342 C 35.667 55.076,35.710 55.171,36.083 55.265 C 36.447 55.356,36.500 55.460,36.500 56.091 C 36.500 56.985,36.747 57.667,37.070 57.667 C 37.249 57.667,37.330 57.905,37.366 58.542 C 37.410 59.304,37.465 59.424,37.792 59.470 C 38.122 59.517,38.167 59.620,38.167 60.342 C 38.167 61.064,38.213 61.172,38.561 61.259 C 38.909 61.347,38.967 61.481,39.049 62.381 C 39.179 63.818,39.213 63.833,42.365 63.833 L 45.000 63.833 45.000 63.000 C 45.000 62.226,44.971 62.167,44.591 62.167 C 44.198 62.167,44.179 62.117,44.132 60.958 C 44.088 59.858,44.051 59.745,43.717 59.698 C 43.401 59.653,43.343 59.526,43.300 58.781 C 43.257 58.030,43.201 57.910,42.875 57.863 C 42.545 57.817,42.500 57.713,42.500 57.006 C 42.500 56.366,42.415 56.121,42.086 55.809 C 41.794 55.532,41.672 55.237,41.670 54.805 C 41.666 53.976,41.524 53.667,41.149 53.667 C 40.893 53.667,40.833 53.543,40.833 53.014 C 40.833 52.105,40.695 51.833,40.232 51.833 C 39.852 51.833,39.833 51.782,39.833 50.746 C 39.833 49.749,39.799 49.644,39.417 49.470 C 39.058 49.306,39.000 49.171,39.000 48.491 C 39.000 47.789,38.954 47.691,38.583 47.598 C 38.209 47.504,38.167 47.410,38.167 46.663 C 38.167 45.893,38.137 45.833,37.758 45.833 C 37.369 45.833,37.346 45.778,37.299 44.708 C 37.256 43.726,37.202 43.562,36.875 43.419 C 36.563 43.282,36.500 43.123,36.500 42.479 C 36.500 41.790,36.453 41.691,36.083 41.598 C 35.718 41.507,35.667 41.403,35.667 40.766 C 35.667 40.174,35.589 39.988,35.250 39.765 C 34.975 39.585,34.833 39.337,34.831 39.038 C 34.827 37.870,34.637 37.333,34.228 37.333 C 33.866 37.333,33.833 37.265,33.833 36.503 C 33.833 35.757,33.791 35.662,33.417 35.568 C 33.042 35.474,33.000 35.380,33.000 34.638 C 33.000 33.725,32.780 33.167,32.420 33.167 C 32.253 33.167,32.169 32.910,32.134 32.292 C 32.090 31.529,32.035 31.410,31.708 31.363 C 31.378 31.316,31.333 31.214,31.333 30.492 C 31.333 29.757,31.290 29.662,30.917 29.568 C 30.564 29.480,30.500 29.367,30.500 28.836 C 30.500 27.795,30.322 27.203,29.982 27.114 C 29.748 27.053,29.667 26.880,29.667 26.446 C 29.667 25.645,29.522 25.333,29.149 25.333 C 28.888 25.333,28.833 25.209,28.833 24.617 C 28.833 23.849,28.615 23.500,28.133 23.500 C 27.873 23.500,27.833 23.346,27.833 22.337 C 27.833 21.234,27.811 21.167,27.417 21.068 C 27.043 20.975,27.000 20.879,27.000 20.149 C 27.000 19.390,26.971 19.333,26.583 19.333 C 26.194 19.333,26.167 19.278,26.167 18.492 C 26.167 17.818,26.084 17.569,25.750 17.235 C 25.436 16.921,25.333 16.643,25.333 16.109 C 25.333 15.719,25.243 15.310,25.133 15.200 C 24.918 14.985,20.485 14.904,20.278 15.111 M23.283 24.302 C 23.599 24.347,23.657 24.474,23.700 25.219 C 23.743 25.970,23.799 26.090,24.125 26.137 C 24.456 26.184,24.500 26.286,24.500 27.012 C 24.500 27.485,24.576 27.833,24.679 27.833 C 25.076 27.833,25.318 28.340,25.366 29.271 C 25.411 30.134,25.460 30.256,25.783 30.302 C 26.099 30.347,26.157 30.474,26.200 31.219 C 26.243 31.970,26.299 32.090,26.625 32.137 C 26.939 32.181,27.000 32.293,27.000 32.824 C 27.000 33.862,27.183 34.483,27.520 34.590 C 27.723 34.654,27.834 34.846,27.836 35.136 C 27.840 35.925,28.029 36.334,28.437 36.437 C 28.787 36.524,28.833 36.632,28.833 37.351 C 28.833 37.820,28.909 38.167,29.012 38.167 C 29.409 38.167,29.651 38.673,29.699 39.604 C 29.744 40.475,29.792 40.589,30.125 40.637 C 30.456 40.684,30.500 40.786,30.500 41.512 C 30.500 42.277,30.529 42.333,30.917 42.333 C 31.311 42.333,31.333 42.383,31.333 43.250 L 31.333 44.167 22.333 44.167 C 17.383 44.167,13.333 44.133,13.333 44.092 C 13.333 44.051,13.521 43.815,13.750 43.568 C 14.075 43.216,14.167 42.941,14.167 42.309 C 14.167 41.557,14.196 41.500,14.583 41.500 C 14.971 41.500,15.000 41.443,15.000 40.685 C 15.000 39.958,15.045 39.858,15.409 39.767 C 15.781 39.674,15.822 39.571,15.867 38.624 C 15.910 37.730,15.969 37.560,16.292 37.419 C 16.612 37.278,16.667 37.127,16.667 36.377 C 16.667 35.563,16.695 35.500,17.066 35.500 C 17.515 35.500,17.667 35.227,17.667 34.414 C 17.667 34.014,17.755 33.828,17.980 33.756 C 18.317 33.649,18.500 33.029,18.500 31.991 C 18.500 31.460,18.561 31.348,18.875 31.303 C 19.201 31.257,19.257 31.137,19.300 30.385 C 19.343 29.640,19.401 29.514,19.717 29.469 C 20.027 29.425,20.091 29.295,20.134 28.625 C 20.162 28.190,20.250 27.833,20.331 27.833 C 20.746 27.833,21.000 27.263,21.000 26.333 C 21.000 25.447,21.035 25.352,21.375 25.303 C 21.702 25.257,21.756 25.137,21.800 24.375 C 21.847 23.571,21.884 23.500,22.259 23.500 C 22.602 23.500,22.671 23.415,22.694 22.958 C 22.711 22.622,22.758 22.765,22.819 23.333 C 22.902 24.115,22.971 24.258,23.283 24.302 M60.905 27.128 C 60.806 27.195,60.678 27.378,60.620 27.536 C 60.533 27.774,60.245 27.829,58.883 27.869 C 57.345 27.914,57.247 27.938,57.198 28.283 C 57.153 28.599,57.026 28.657,56.281 28.700 C 55.541 28.743,55.409 28.802,55.365 29.111 C 55.323 29.406,55.165 29.492,54.490 29.585 C 53.763 29.685,53.667 29.745,53.667 30.099 C 53.667 30.416,53.579 30.500,53.250 30.500 C 52.917 30.500,52.833 30.583,52.833 30.917 C 52.833 31.250,52.750 31.333,52.417 31.333 C 52.083 31.333,52.000 31.417,52.000 31.750 C 52.000 32.082,51.916 32.167,51.587 32.167 C 51.287 32.167,51.145 32.279,51.071 32.574 C 51.009 32.822,50.828 33.001,50.609 33.032 C 50.397 33.062,50.230 33.222,50.202 33.422 C 50.175 33.608,49.987 33.833,49.785 33.922 C 49.504 34.045,49.405 34.249,49.366 34.781 C 49.324 35.354,49.249 35.489,48.949 35.531 C 48.633 35.576,48.576 35.703,48.533 36.458 C 48.487 37.262,48.449 37.333,48.075 37.333 C 47.697 37.333,47.667 37.395,47.667 38.149 C 47.667 38.879,47.623 38.975,47.250 39.068 C 46.834 39.173,46.833 39.174,46.833 41.242 C 46.833 43.260,46.824 43.311,46.458 43.363 C 46.091 43.416,46.082 43.468,46.037 45.875 L 45.991 48.333 46.407 48.333 L 46.823 48.333 46.870 50.458 C 46.915 52.519,46.928 52.585,47.292 52.637 C 47.618 52.683,47.667 52.789,47.667 53.446 C 47.667 54.054,47.748 54.266,48.083 54.530 C 48.393 54.774,48.500 55.015,48.500 55.473 C 48.500 55.951,48.584 56.124,48.875 56.252 C 49.148 56.372,49.273 56.599,49.333 57.083 C 49.399 57.610,49.493 57.761,49.781 57.802 C 50.009 57.834,50.166 57.991,50.198 58.219 C 50.230 58.444,50.387 58.603,50.609 58.635 C 50.828 58.666,51.009 58.845,51.071 59.093 C 51.145 59.388,51.287 59.500,51.587 59.500 C 51.916 59.500,52.000 59.584,52.000 59.917 C 52.000 60.247,52.084 60.333,52.406 60.333 C 52.724 60.333,52.823 60.432,52.864 60.792 C 52.901 61.115,53.024 61.265,53.281 61.302 C 53.509 61.334,53.666 61.491,53.698 61.719 C 53.739 62.007,53.890 62.101,54.417 62.167 C 54.901 62.227,55.128 62.352,55.248 62.625 C 55.361 62.884,55.555 63.000,55.873 63.000 C 56.174 63.000,56.333 63.088,56.333 63.254 C 56.333 63.597,57.014 63.833,57.999 63.833 C 58.713 63.833,58.817 63.878,58.863 64.208 L 58.917 64.583 62.917 64.632 C 67.374 64.686,67.934 64.636,68.083 64.169 C 68.162 63.918,68.369 63.839,69.050 63.800 C 69.804 63.757,69.924 63.701,69.970 63.375 C 70.017 63.044,70.120 63.000,70.845 63.000 C 71.600 63.000,71.667 62.968,71.667 62.602 C 71.667 62.257,71.768 62.189,72.436 62.089 C 72.986 62.007,73.228 61.886,73.286 61.663 C 73.331 61.492,73.528 61.329,73.725 61.301 C 73.974 61.266,74.099 61.113,74.135 60.802 C 74.175 60.455,74.289 60.342,74.635 60.302 C 74.946 60.266,75.099 60.140,75.134 59.893 C 75.166 59.667,75.335 59.507,75.593 59.457 L 76.000 59.380 76.000 62.523 C 76.000 65.173,75.962 65.667,75.756 65.667 C 75.380 65.667,75.167 66.222,75.167 67.200 C 75.167 67.961,75.113 68.111,74.792 68.252 C 74.502 68.379,74.405 68.578,74.365 69.125 C 74.320 69.749,74.266 69.833,73.910 69.833 C 73.623 69.833,73.477 69.949,73.406 70.234 C 73.350 70.455,73.156 70.674,72.974 70.722 C 72.791 70.770,72.601 70.965,72.551 71.156 C 72.501 71.347,72.282 71.548,72.063 71.603 C 71.831 71.662,71.667 71.826,71.667 72.000 C 71.667 72.178,71.500 72.339,71.250 72.402 C 70.946 72.478,70.833 72.618,70.833 72.920 C 70.833 73.310,70.782 73.333,69.909 73.333 C 69.141 73.333,68.920 73.403,68.605 73.742 C 68.279 74.094,68.053 74.158,66.988 74.200 C 65.849 74.246,65.746 74.280,65.697 74.625 C 65.645 74.986,65.581 75.000,63.917 75.000 C 62.253 75.000,62.188 74.986,62.137 74.625 C 62.086 74.268,62.002 74.248,60.412 74.203 C 58.869 74.159,58.729 74.128,58.579 73.786 C 58.438 73.465,58.269 73.410,57.292 73.367 C 56.222 73.321,56.167 73.298,56.167 72.909 C 56.167 72.610,56.076 72.500,55.830 72.500 C 55.634 72.500,55.415 72.329,55.306 72.090 C 55.165 71.780,54.945 71.654,54.402 71.572 C 53.838 71.488,53.674 71.389,53.634 71.107 C 53.602 70.884,53.443 70.730,53.208 70.697 C 52.950 70.660,52.833 70.530,52.833 70.278 C 52.833 70.060,52.683 69.846,52.462 69.748 C 52.230 69.645,52.021 69.332,51.905 68.917 L 51.720 68.250 50.152 68.250 C 48.652 68.250,48.581 68.266,48.530 68.625 C 48.492 68.896,48.365 69.000,48.072 69.000 C 47.675 69.000,47.667 69.028,47.667 70.403 C 47.667 72.024,47.750 72.333,48.184 72.333 C 48.409 72.333,48.500 72.452,48.500 72.747 C 48.500 73.046,48.612 73.188,48.907 73.262 C 49.155 73.325,49.334 73.505,49.365 73.724 C 49.397 73.946,49.556 74.103,49.781 74.135 C 50.009 74.168,50.166 74.325,50.198 74.552 C 50.235 74.810,50.385 74.932,50.708 74.969 C 51.068 75.011,51.167 75.109,51.167 75.428 C 51.167 75.746,51.254 75.833,51.572 75.833 C 51.865 75.833,51.992 75.937,52.030 76.208 C 52.076 76.528,52.199 76.591,52.875 76.634 C 53.590 76.680,53.667 76.725,53.667 77.092 C 53.667 77.479,53.717 77.500,54.667 77.500 C 55.304 77.500,55.667 77.569,55.667 77.690 C 55.667 78.154,56.271 78.323,57.958 78.328 C 59.363 78.332,59.667 78.378,59.667 78.583 C 59.667 78.799,60.250 78.833,63.917 78.833 C 67.583 78.833,68.167 78.799,68.167 78.583 C 68.167 78.382,68.423 78.333,69.472 78.333 C 70.693 78.333,70.791 78.307,71.000 77.917 C 71.202 77.540,71.323 77.500,72.278 77.500 C 73.277 77.500,73.333 77.479,73.333 77.105 C 73.333 76.773,73.440 76.692,73.995 76.604 C 74.400 76.539,74.723 76.373,74.828 76.177 C 74.923 76.000,75.206 75.832,75.458 75.803 C 75.782 75.765,75.932 75.643,75.969 75.385 C 76.001 75.158,76.158 75.001,76.385 74.969 C 76.612 74.936,76.770 74.779,76.802 74.552 C 76.834 74.325,76.991 74.168,77.219 74.135 C 77.449 74.102,77.603 73.946,77.637 73.709 C 77.670 73.475,77.842 73.296,78.095 73.232 C 78.455 73.142,78.500 73.040,78.500 72.315 C 78.500 71.557,78.529 71.500,78.917 71.500 C 79.306 71.500,79.333 71.444,79.333 70.667 C 79.333 69.899,79.365 69.833,79.732 69.833 C 80.269 69.833,80.333 69.592,80.333 67.579 C 80.333 65.977,80.360 65.833,80.708 65.590 L 81.083 65.327 81.127 46.907 C 81.157 34.300,81.116 28.383,80.996 28.160 C 80.835 27.859,80.634 27.833,78.411 27.833 L 76.000 27.833 76.000 30.477 L 76.000 33.120 75.593 33.043 C 75.335 32.993,75.166 32.833,75.134 32.607 C 75.099 32.357,74.945 32.234,74.625 32.197 C 74.265 32.156,74.167 32.058,74.167 31.739 C 74.167 31.417,74.080 31.333,73.750 31.333 C 73.417 31.333,73.333 31.250,73.333 30.917 C 73.333 30.583,73.250 30.500,72.917 30.500 C 72.585 30.500,72.500 30.416,72.500 30.089 C 72.500 29.722,72.411 29.666,71.676 29.569 C 71.004 29.480,70.842 29.394,70.801 29.105 C 70.759 28.810,70.619 28.742,69.974 28.700 C 69.310 28.657,69.184 28.591,69.096 28.242 C 68.996 27.841,68.961 27.833,67.247 27.833 C 65.793 27.833,65.500 27.791,65.500 27.579 C 65.500 27.079,61.543 26.690,60.905 27.128 M102.778 27.111 C 102.717 27.172,102.667 27.353,102.667 27.513 C 102.667 27.771,102.441 27.811,100.740 27.861 C 98.988 27.912,98.788 27.950,98.532 28.283 C 98.330 28.545,98.037 28.663,97.500 28.700 C 96.879 28.741,96.741 28.812,96.699 29.107 C 96.659 29.392,96.494 29.488,95.899 29.577 C 95.313 29.665,95.116 29.778,94.996 30.095 C 94.889 30.376,94.713 30.500,94.421 30.500 C 94.083 30.500,94.000 30.582,94.000 30.917 C 94.000 31.250,93.917 31.333,93.583 31.333 C 93.250 31.333,93.167 31.417,93.167 31.750 C 93.167 32.083,93.083 32.167,92.750 32.167 C 92.417 32.167,92.333 32.250,92.333 32.583 C 92.333 32.917,92.250 33.000,91.917 33.000 C 91.583 33.000,91.500 33.083,91.500 33.417 C 91.500 33.746,91.416 33.833,91.097 33.833 C 90.784 33.833,90.668 33.946,90.583 34.333 C 90.523 34.608,90.365 34.833,90.233 34.833 C 89.960 34.833,89.667 35.487,89.667 36.094 C 89.667 36.339,89.570 36.500,89.423 36.500 C 89.085 36.500,88.833 37.030,88.833 37.739 C 88.833 38.145,88.757 38.333,88.593 38.333 C 88.204 38.333,88.096 38.669,88.004 40.167 C 87.923 41.478,87.889 41.587,87.542 41.637 L 87.167 41.690 87.167 45.842 L 87.167 49.994 87.583 50.098 C 87.986 50.199,88.000 50.249,88.000 51.588 C 88.000 53.191,88.084 53.500,88.518 53.500 C 88.781 53.500,88.833 53.625,88.833 54.254 C 88.833 54.891,88.896 55.036,89.242 55.193 C 89.563 55.340,89.660 55.525,89.700 56.065 C 89.738 56.584,89.839 56.789,90.118 56.912 C 90.321 57.000,90.508 57.225,90.535 57.412 C 90.568 57.641,90.730 57.767,91.042 57.803 C 91.407 57.845,91.500 57.941,91.500 58.278 C 91.500 58.532,91.699 58.886,92.000 59.167 C 92.275 59.424,92.500 59.714,92.500 59.811 C 92.500 60.057,93.062 60.333,93.561 60.333 C 93.892 60.333,93.989 60.428,94.031 60.792 C 94.068 61.115,94.190 61.265,94.448 61.302 C 94.675 61.334,94.832 61.491,94.865 61.719 C 94.901 61.976,95.051 62.099,95.375 62.136 C 95.641 62.167,95.833 62.291,95.833 62.432 C 95.833 62.704,96.484 63.000,97.083 63.000 C 97.365 63.000,97.492 63.107,97.530 63.375 C 97.579 63.719,97.683 63.754,98.781 63.799 C 99.872 63.843,99.983 63.880,100.031 64.215 L 100.083 64.583 105.104 64.627 L 110.125 64.671 110.400 64.252 C 110.631 63.899,110.803 63.833,111.490 63.833 C 112.521 63.833,112.833 63.713,112.833 63.316 C 112.833 63.048,112.960 63.000,113.663 63.000 C 114.410 63.000,114.504 62.958,114.598 62.583 C 114.661 62.334,114.822 62.167,114.999 62.167 C 115.162 62.167,115.416 61.983,115.563 61.758 C 115.726 61.509,116.061 61.306,116.417 61.239 C 116.849 61.158,117.029 61.024,117.103 60.731 C 117.173 60.451,117.320 60.333,117.601 60.333 C 117.915 60.333,118.000 60.245,118.000 59.917 C 118.000 59.583,118.083 59.500,118.417 59.500 C 118.742 59.500,118.833 59.415,118.833 59.110 C 118.833 58.856,118.978 58.654,119.250 58.530 C 119.591 58.375,119.667 58.222,119.667 57.688 C 119.667 57.141,119.730 57.020,120.061 56.937 C 120.491 56.829,120.733 55.873,120.556 54.986 C 120.472 54.566,120.404 54.538,119.281 54.458 C 118.314 54.388,118.052 54.308,117.860 54.020 C 117.270 53.131,115.500 53.688,115.500 54.762 C 115.500 55.260,115.447 55.333,115.083 55.333 C 114.753 55.333,114.667 55.417,114.667 55.738 C 114.667 56.032,114.563 56.158,114.292 56.197 C 114.051 56.231,113.898 56.384,113.863 56.625 C 113.825 56.895,113.698 57.000,113.408 57.000 C 113.121 57.000,112.977 57.116,112.904 57.407 C 112.842 57.655,112.661 57.834,112.443 57.865 C 112.217 57.898,112.063 58.056,112.030 58.292 C 111.987 58.595,111.871 58.667,111.419 58.667 C 110.650 58.667,110.333 58.815,110.333 59.175 C 110.333 59.423,110.181 59.492,109.542 59.533 C 108.866 59.576,108.742 59.638,108.697 59.958 C 108.620 60.497,102.500 60.559,102.500 60.022 C 102.500 59.689,101.843 59.505,100.637 59.502 C 100.128 59.500,100.014 59.436,99.970 59.125 C 99.935 58.882,99.783 58.731,99.537 58.696 C 99.328 58.667,98.975 58.460,98.753 58.238 C 98.530 58.015,98.163 57.833,97.936 57.833 C 97.635 57.833,97.509 57.732,97.470 57.458 C 97.432 57.190,97.287 57.068,96.958 57.031 C 96.598 56.989,96.500 56.891,96.500 56.572 C 96.500 56.257,96.412 56.167,96.105 56.167 C 95.773 56.167,95.692 56.060,95.604 55.505 C 95.537 55.091,95.374 54.778,95.166 54.666 C 94.973 54.563,94.833 54.317,94.833 54.081 C 94.833 53.787,94.719 53.644,94.425 53.571 C 94.075 53.483,94.010 53.357,93.967 52.692 C 93.925 52.038,93.859 51.908,93.549 51.864 C 93.214 51.817,93.176 51.705,93.132 50.614 C 93.087 49.517,93.052 49.412,92.708 49.363 C 92.417 49.322,92.333 49.201,92.333 48.822 L 92.333 48.333 107.649 48.333 C 121.461 48.333,122.974 48.307,123.066 48.070 C 123.197 47.727,123.197 43.940,123.066 43.597 C 123.010 43.452,122.822 43.333,122.649 43.333 C 122.358 43.333,122.333 43.187,122.333 41.489 C 122.333 39.632,122.186 39.000,121.753 39.000 C 121.591 39.000,121.503 38.754,121.467 38.208 C 121.424 37.533,121.362 37.409,121.042 37.363 C 120.720 37.318,120.667 37.209,120.667 36.605 C 120.667 35.853,120.446 35.500,119.976 35.500 C 119.754 35.500,119.674 35.334,119.635 34.792 C 119.592 34.203,119.520 34.074,119.208 34.030 C 118.917 33.989,118.833 33.868,118.833 33.488 C 118.833 33.079,118.766 33.000,118.417 33.000 C 118.083 33.000,118.000 32.917,118.000 32.583 C 118.000 32.250,117.917 32.167,117.583 32.167 C 117.250 32.167,117.167 32.083,117.167 31.750 C 117.167 31.422,117.082 31.333,116.768 31.333 C 116.482 31.333,116.340 31.216,116.265 30.917 C 116.173 30.550,116.071 30.500,115.413 30.500 C 114.805 30.500,114.667 30.444,114.667 30.200 C 114.667 29.823,114.353 29.500,113.986 29.500 C 113.832 29.500,113.669 29.361,113.625 29.192 C 113.538 28.859,112.879 28.667,111.824 28.667 C 111.293 28.667,111.181 28.606,111.137 28.292 C 111.086 27.934,111.003 27.914,109.375 27.869 C 107.838 27.826,107.667 27.791,107.667 27.512 C 107.667 27.342,107.548 27.157,107.403 27.101 C 107.044 26.963,102.917 26.972,102.778 27.111 M145.611 27.111 C 145.550 27.172,145.500 27.357,145.500 27.523 C 145.500 27.793,145.297 27.828,143.458 27.870 C 141.536 27.914,141.407 27.938,141.255 28.284 C 141.129 28.572,140.931 28.662,140.339 28.701 C 139.706 28.742,139.575 28.809,139.531 29.116 C 139.487 29.425,139.357 29.490,138.698 29.533 C 137.984 29.579,137.912 29.623,137.864 30.042 C 137.823 30.401,137.724 30.500,137.409 30.500 C 137.119 30.500,136.977 30.616,136.902 30.917 C 136.813 31.272,136.702 31.333,136.145 31.333 C 135.615 31.333,135.458 31.410,135.307 31.741 C 135.205 31.966,134.963 32.172,134.769 32.200 C 134.566 32.229,134.396 32.391,134.369 32.583 C 134.342 32.767,134.138 33.003,133.914 33.107 L 133.508 33.298 133.462 30.607 L 133.417 27.917 130.917 27.917 L 128.417 27.917 128.417 45.833 L 128.417 63.750 130.958 63.796 L 133.500 63.842 133.505 52.963 C 133.511 41.768,133.526 41.500,134.143 41.500 C 134.260 41.500,134.333 41.179,134.333 40.667 C 134.333 39.889,134.361 39.833,134.750 39.833 C 135.093 39.833,135.167 39.752,135.170 39.375 C 135.171 39.106,135.344 38.754,135.586 38.524 C 135.814 38.308,136.000 37.952,136.000 37.733 C 136.000 37.418,136.088 37.333,136.417 37.333 C 136.747 37.333,136.833 37.249,136.833 36.928 C 136.833 36.609,136.932 36.511,137.292 36.469 C 137.652 36.428,137.761 36.318,137.803 35.958 C 137.844 35.598,137.942 35.500,138.261 35.500 C 138.580 35.500,138.667 35.413,138.667 35.092 C 138.667 34.725,138.744 34.680,139.458 34.634 C 140.134 34.591,140.258 34.528,140.303 34.208 C 140.346 33.905,140.463 33.833,140.915 33.833 C 141.684 33.833,142.000 33.685,142.000 33.325 C 142.000 33.077,142.153 33.008,142.792 32.967 C 143.467 32.924,143.591 32.862,143.637 32.542 C 143.689 32.171,143.719 32.167,146.333 32.167 C 148.948 32.167,148.977 32.171,149.030 32.542 C 149.076 32.862,149.199 32.924,149.875 32.967 C 150.590 33.013,150.667 33.058,150.667 33.426 C 150.667 33.749,150.752 33.833,151.083 33.833 C 151.412 33.833,151.500 33.918,151.500 34.233 C 151.500 34.452,151.686 34.808,151.914 35.024 C 152.171 35.268,152.330 35.606,152.333 35.917 C 152.341 36.747,152.516 37.167,152.853 37.167 C 153.140 37.167,153.167 37.313,153.167 38.893 C 153.167 41.268,153.301 42.134,153.688 42.257 C 153.985 42.351,153.999 42.790,154.040 53.053 L 154.083 63.750 156.208 63.797 L 158.333 63.843 158.333 49.758 L 158.333 35.673 157.917 35.568 C 157.519 35.469,157.500 35.407,157.500 34.232 C 157.500 33.029,157.490 33.000,157.083 33.000 C 156.694 33.000,156.667 32.944,156.667 32.167 C 156.667 31.407,156.632 31.333,156.282 31.333 C 155.966 31.333,155.869 31.208,155.740 30.632 C 155.604 30.023,155.480 29.878,154.792 29.526 C 154.356 29.304,154.000 29.019,154.000 28.894 C 154.000 28.764,153.826 28.667,153.595 28.667 C 153.302 28.667,153.175 28.563,153.137 28.292 C 153.087 27.945,152.987 27.913,151.792 27.868 C 150.783 27.830,150.500 27.765,150.500 27.572 C 150.500 27.088,146.053 26.669,145.611 27.111 M180.033 27.200 C 179.923 27.310,179.833 27.498,179.833 27.617 C 179.833 27.780,179.424 27.833,178.170 27.833 C 176.534 27.833,176.505 27.840,176.402 28.250 C 176.313 28.602,176.200 28.667,175.669 28.667 C 174.621 28.667,173.962 28.859,173.875 29.192 C 173.831 29.361,173.667 29.500,173.512 29.500 C 173.357 29.500,173.063 29.725,172.860 30.000 C 172.572 30.388,172.361 30.500,171.912 30.500 C 171.410 30.500,171.333 30.554,171.333 30.906 C 171.333 31.224,171.235 31.323,170.875 31.364 C 170.547 31.402,170.402 31.523,170.363 31.792 C 170.325 32.063,170.198 32.167,169.905 32.167 C 169.587 32.167,169.500 32.254,169.500 32.572 C 169.500 32.865,169.396 32.992,169.125 33.030 C 168.898 33.062,168.731 33.217,168.702 33.422 C 168.675 33.608,168.487 33.833,168.285 33.922 C 168.004 34.045,167.905 34.249,167.866 34.781 C 167.824 35.354,167.749 35.489,167.449 35.531 C 167.133 35.576,167.076 35.703,167.033 36.458 C 166.987 37.262,166.949 37.333,166.575 37.333 C 166.197 37.333,166.167 37.394,166.167 38.155 C 166.167 38.880,166.122 38.983,165.793 39.030 C 165.320 39.097,165.212 39.570,165.186 41.689 C 165.169 43.101,165.130 43.304,164.859 43.375 C 164.105 43.572,164.101 48.333,164.854 48.333 C 165.135 48.333,165.167 48.475,165.167 49.727 C 165.167 52.001,165.304 52.667,165.773 52.667 C 166.130 52.667,166.167 52.738,166.167 53.434 C 166.167 54.055,166.247 54.265,166.583 54.530 C 166.893 54.774,167.000 55.015,167.000 55.473 C 167.000 55.951,167.084 56.124,167.375 56.252 C 167.648 56.372,167.773 56.599,167.833 57.083 C 167.900 57.617,167.992 57.761,168.292 57.803 C 168.563 57.842,168.667 57.968,168.667 58.262 C 168.667 58.583,168.753 58.667,169.083 58.667 C 169.417 58.667,169.500 58.750,169.500 59.083 C 169.500 59.417,169.583 59.500,169.917 59.500 C 170.247 59.500,170.333 59.584,170.333 59.906 C 170.333 60.223,170.432 60.323,170.785 60.364 C 171.108 60.402,171.264 60.535,171.334 60.833 C 171.394 61.092,171.566 61.270,171.788 61.302 C 172.008 61.334,172.166 61.494,172.198 61.719 C 172.242 62.027,172.373 62.091,173.042 62.134 C 173.756 62.180,173.833 62.225,173.833 62.592 C 173.833 62.934,173.914 63.000,174.333 63.000 C 174.661 63.000,174.833 63.084,174.833 63.244 C 174.833 63.620,175.389 63.833,176.366 63.833 C 177.127 63.833,177.278 63.887,177.419 64.208 L 177.583 64.583 182.723 64.583 C 187.852 64.583,187.864 64.583,188.167 64.208 C 188.401 63.918,188.643 63.833,189.232 63.833 C 189.901 63.833,190.006 63.784,190.096 63.425 C 190.184 63.075,190.310 63.010,190.974 62.967 C 191.621 62.925,191.758 62.857,191.801 62.559 C 191.842 62.274,192.006 62.179,192.612 62.088 C 193.165 62.005,193.394 61.886,193.456 61.652 C 193.502 61.475,193.712 61.287,193.922 61.234 C 194.138 61.179,194.347 60.968,194.402 60.747 C 194.462 60.508,194.646 60.336,194.875 60.303 C 195.116 60.269,195.269 60.116,195.303 59.875 C 195.342 59.604,195.468 59.500,195.762 59.500 C 196.083 59.500,196.167 59.413,196.167 59.083 C 196.167 58.829,196.262 58.667,196.411 58.667 C 196.729 58.667,197.000 58.147,197.000 57.538 C 197.000 57.183,197.111 57.003,197.417 56.864 C 197.779 56.698,197.833 56.567,197.833 55.851 C 197.833 54.597,197.758 54.501,196.774 54.496 C 195.677 54.491,194.640 54.250,194.420 53.950 C 193.987 53.357,192.667 53.511,192.667 54.154 C 192.667 54.335,192.565 54.543,192.441 54.617 C 192.138 54.796,191.833 55.400,191.833 55.822 C 191.833 56.079,191.727 56.167,191.417 56.167 C 191.083 56.167,191.000 56.250,191.000 56.583 C 191.000 56.917,190.917 57.000,190.583 57.000 C 190.250 57.000,190.167 57.083,190.167 57.417 C 190.167 57.780,190.094 57.833,189.597 57.833 C 188.816 57.833,188.500 57.980,188.500 58.342 C 188.500 58.589,188.347 58.658,187.708 58.699 C 187.088 58.739,186.883 58.827,186.760 59.106 C 186.623 59.419,186.436 59.470,185.193 59.536 C 183.999 59.598,183.738 59.665,183.490 59.971 C 183.074 60.484,180.667 60.525,180.667 60.019 C 180.667 59.644,180.236 59.505,179.060 59.502 C 178.286 59.500,178.193 59.460,178.098 59.083 C 178.004 58.709,177.910 58.667,177.163 58.667 C 176.389 58.667,176.333 58.639,176.333 58.250 C 176.333 57.920,176.249 57.833,175.928 57.833 C 175.635 57.833,175.508 57.730,175.470 57.458 C 175.436 57.221,175.283 57.064,175.052 57.031 C 174.825 56.999,174.668 56.842,174.635 56.615 C 174.603 56.388,174.446 56.230,174.219 56.198 C 173.991 56.166,173.834 56.009,173.802 55.781 C 173.769 55.551,173.612 55.397,173.375 55.363 C 173.104 55.325,173.000 55.198,173.000 54.905 C 173.000 54.588,172.913 54.500,172.599 54.500 C 172.245 54.500,172.185 54.404,172.085 53.681 C 171.992 53.006,171.904 52.845,171.579 52.764 C 171.244 52.680,171.177 52.546,171.134 51.874 C 171.091 51.199,171.028 51.076,170.708 51.030 C 170.358 50.980,170.333 50.896,170.333 49.738 C 170.333 48.529,170.324 48.500,169.917 48.500 L 169.500 48.500 169.500 45.935 L 169.500 43.369 169.917 43.265 C 170.315 43.165,170.333 43.104,170.333 41.913 C 170.333 40.695,170.343 40.667,170.750 40.667 C 171.139 40.667,171.167 40.611,171.167 39.833 C 171.167 39.108,171.210 39.000,171.504 39.000 C 171.866 39.000,172.167 38.433,172.167 37.751 C 172.167 37.469,172.273 37.341,172.542 37.303 C 172.777 37.270,172.936 37.116,172.968 36.891 C 172.999 36.672,173.178 36.491,173.426 36.429 C 173.721 36.355,173.833 36.213,173.833 35.913 C 173.833 35.584,173.918 35.500,174.250 35.500 C 174.583 35.500,174.667 35.417,174.667 35.083 C 174.667 34.750,174.750 34.667,175.083 34.667 C 175.417 34.667,175.500 34.583,175.500 34.250 C 175.500 33.862,175.557 33.833,176.315 33.833 C 177.041 33.833,177.142 33.789,177.233 33.426 C 177.321 33.075,177.446 33.011,178.126 32.967 C 178.801 32.924,178.924 32.862,178.970 32.542 C 179.023 32.167,179.024 32.167,182.417 32.167 C 185.809 32.167,185.810 32.167,185.863 32.542 C 185.910 32.868,186.030 32.923,186.781 32.967 C 187.526 33.010,187.653 33.067,187.698 33.383 C 187.742 33.694,187.872 33.758,188.542 33.801 C 189.256 33.847,189.333 33.891,189.333 34.259 C 189.333 34.583,189.419 34.667,189.750 34.667 C 190.083 34.667,190.167 34.750,190.167 35.083 C 190.167 35.414,190.251 35.500,190.572 35.500 C 190.891 35.500,190.989 35.598,191.031 35.958 C 191.068 36.287,191.190 36.432,191.458 36.470 C 191.774 36.515,191.833 36.626,191.833 37.172 C 191.833 38.353,194.248 38.643,195.083 37.563 C 195.175 37.445,195.625 37.326,196.083 37.299 L 196.917 37.250 196.917 36.000 C 196.917 34.831,196.892 34.747,196.542 34.697 C 196.238 34.654,196.167 34.537,196.167 34.085 C 196.167 33.318,196.019 33.000,195.660 33.000 C 195.472 33.000,195.336 32.857,195.303 32.625 C 195.270 32.388,195.116 32.231,194.885 32.198 C 194.658 32.166,194.501 32.009,194.469 31.781 C 194.432 31.524,194.282 31.401,193.958 31.364 C 193.598 31.323,193.500 31.224,193.500 30.906 C 193.500 30.584,193.414 30.500,193.083 30.500 C 192.754 30.500,192.667 30.416,192.667 30.099 C 192.667 29.745,192.571 29.685,191.843 29.585 C 191.169 29.492,191.010 29.406,190.968 29.111 C 190.924 28.801,190.793 28.743,190.042 28.700 C 189.321 28.658,189.167 28.595,189.167 28.342 C 189.167 27.902,188.855 27.833,186.846 27.833 C 185.096 27.833,185.049 27.824,184.864 27.417 C 184.646 26.939,180.481 26.752,180.033 27.200 M228.111 27.111 C 228.050 27.172,228.000 27.353,228.000 27.513 C 228.000 27.771,227.774 27.811,226.062 27.861 C 224.268 27.912,224.105 27.945,223.875 28.292 C 223.679 28.586,223.468 28.667,222.893 28.667 C 222.272 28.667,222.130 28.731,221.970 29.083 C 221.824 29.404,221.654 29.500,221.237 29.500 C 220.444 29.500,220.167 29.653,220.167 30.092 C 220.167 30.439,220.079 30.487,219.375 30.533 C 218.699 30.576,218.576 30.638,218.530 30.958 C 218.497 31.193,218.361 31.333,218.168 31.333 C 217.122 31.333,216.296 33.662,217.292 33.803 C 217.576 33.844,217.667 33.966,217.667 34.313 C 217.667 35.424,220.817 36.119,220.970 35.042 C 221.008 34.770,221.135 34.667,221.428 34.667 C 221.747 34.667,221.833 34.580,221.833 34.259 C 221.833 33.884,221.905 33.847,222.708 33.800 C 223.471 33.756,223.590 33.702,223.637 33.375 C 223.683 33.052,223.790 33.000,224.417 33.000 C 225.326 33.000,226.000 32.753,226.000 32.421 C 226.000 32.216,226.239 32.167,227.229 32.167 C 228.919 32.167,229.500 32.033,229.500 31.646 C 229.500 31.180,231.262 31.181,231.410 31.647 C 231.531 32.026,232.147 32.167,233.688 32.167 C 234.799 32.167,234.833 32.179,234.833 32.583 C 234.833 32.905,234.919 33.000,235.210 33.000 C 235.442 33.000,235.651 33.145,235.752 33.375 C 235.857 33.614,236.092 33.770,236.400 33.805 C 236.953 33.868,237.333 34.185,237.333 34.582 C 237.333 35.004,237.652 35.500,237.923 35.500 C 238.071 35.500,238.167 35.661,238.167 35.913 C 238.167 36.216,238.279 36.355,238.583 36.432 C 238.936 36.520,239.000 36.633,239.000 37.164 C 239.000 38.196,239.183 38.816,239.520 38.923 C 239.805 39.014,239.833 39.214,239.833 41.178 L 239.833 43.333 238.561 43.333 C 237.417 43.333,237.249 43.291,236.902 42.917 L 236.516 42.500 230.254 42.500 L 223.993 42.500 223.803 42.917 C 223.633 43.291,223.515 43.333,222.654 43.333 C 221.479 43.333,221.167 43.442,221.167 43.851 C 221.167 44.084,221.046 44.167,220.708 44.169 C 219.958 44.173,219.536 44.345,219.448 44.682 C 219.393 44.892,219.217 45.000,218.932 45.000 C 218.582 45.000,218.500 45.079,218.500 45.417 C 218.500 45.750,218.417 45.833,218.083 45.833 C 217.750 45.833,217.667 45.917,217.667 46.250 C 217.667 46.582,217.583 46.667,217.253 46.667 C 216.961 46.667,216.812 46.779,216.744 47.048 C 216.691 47.257,216.484 47.501,216.283 47.589 C 215.992 47.717,215.906 47.914,215.866 48.542 C 215.820 49.256,215.775 49.333,215.408 49.333 L 215.000 49.333 215.000 53.481 L 215.000 57.628 215.406 57.895 C 215.695 58.084,215.828 58.343,215.865 58.789 C 215.905 59.276,215.994 59.428,216.261 59.466 C 216.516 59.502,216.646 59.698,216.761 60.216 C 216.866 60.687,217.037 60.970,217.285 61.078 C 217.487 61.167,217.675 61.392,217.702 61.578 C 217.739 61.837,217.935 61.952,218.534 62.068 C 219.141 62.186,219.328 62.298,219.367 62.568 C 219.398 62.784,219.561 62.937,219.796 62.971 C 220.005 63.000,220.358 63.206,220.580 63.429 C 220.829 63.677,221.178 63.833,221.485 63.833 C 221.796 63.833,222.142 63.991,222.402 64.250 L 222.818 64.667 227.492 64.667 L 232.167 64.667 232.167 64.250 C 232.167 63.843,232.196 63.833,233.392 63.833 C 234.469 63.833,234.673 63.783,235.068 63.417 C 235.317 63.185,235.718 63.000,235.969 63.000 C 236.278 63.000,236.473 62.881,236.585 62.625 C 236.705 62.352,236.932 62.227,237.417 62.167 C 237.950 62.100,238.094 62.008,238.137 61.708 C 238.170 61.471,238.305 61.333,238.504 61.333 C 239.025 61.333,239.653 60.971,239.776 60.600 C 239.887 60.265,239.897 60.268,239.995 60.667 C 240.059 60.928,240.234 61.103,240.465 61.137 C 240.793 61.184,240.833 61.288,240.833 62.095 C 240.833 62.949,240.857 63.000,241.250 63.000 C 241.583 63.000,241.667 63.083,241.667 63.417 C 241.667 63.759,241.748 63.834,242.125 63.836 C 242.394 63.838,242.746 64.010,242.976 64.253 C 243.531 64.838,245.833 64.890,245.833 64.318 C 245.833 64.105,245.968 63.934,246.179 63.878 C 246.793 63.718,246.975 62.617,246.727 60.554 L 246.623 59.692 245.812 59.580 L 245.000 59.469 245.000 48.883 L 245.000 38.298 244.583 37.970 C 244.198 37.667,244.167 37.537,244.167 36.241 C 244.167 34.893,244.151 34.836,243.758 34.737 C 243.409 34.649,243.343 34.524,243.300 33.859 C 243.258 33.200,243.194 33.075,242.875 33.030 C 242.604 32.992,242.500 32.865,242.500 32.572 C 242.500 32.251,242.413 32.167,242.083 32.167 C 241.750 32.167,241.667 32.083,241.667 31.750 C 241.667 31.521,241.592 31.333,241.500 31.333 C 241.408 31.333,241.333 31.248,241.333 31.143 C 241.333 30.845,240.794 30.511,240.303 30.505 C 239.940 30.501,239.845 30.413,239.803 30.042 C 239.765 29.713,239.644 29.568,239.375 29.530 C 239.143 29.497,239.000 29.361,239.000 29.173 C 239.000 28.813,238.682 28.667,237.903 28.667 C 237.455 28.667,237.333 28.599,237.333 28.351 C 237.333 27.913,237.025 27.833,235.320 27.833 C 233.972 27.833,233.833 27.804,233.833 27.518 C 233.833 27.344,233.715 27.157,233.570 27.101 C 233.210 26.963,228.250 26.972,228.111 27.111 M203.949 27.940 C 203.885 28.004,203.833 36.106,203.833 45.944 L 203.833 63.833 206.417 63.833 L 209.001 63.833 208.959 45.875 L 208.917 27.917 206.490 27.871 C 205.156 27.845,204.012 27.877,203.949 27.940 M105.608 32.009 C 105.836 32.096,106.804 32.167,107.761 32.167 L 109.500 32.167 109.500 32.583 C 109.500 32.972,109.556 33.000,110.333 33.000 C 111.111 33.000,111.167 33.028,111.167 33.417 C 111.167 33.747,111.251 33.833,111.572 33.833 C 111.865 33.833,111.992 33.937,112.030 34.208 C 112.068 34.473,112.214 34.598,112.525 34.634 C 112.801 34.666,112.999 34.811,113.054 35.022 C 113.102 35.207,113.291 35.397,113.472 35.444 C 113.654 35.492,113.841 35.679,113.889 35.861 C 113.936 36.043,114.131 36.232,114.321 36.282 C 114.543 36.340,114.667 36.508,114.667 36.751 C 114.667 37.017,114.792 37.162,115.083 37.235 C 115.388 37.312,115.500 37.451,115.500 37.753 C 115.500 38.083,115.584 38.167,115.917 38.167 C 116.306 38.167,116.333 38.222,116.333 39.000 C 116.333 39.778,116.361 39.833,116.750 39.833 C 117.157 39.833,117.167 39.861,117.167 41.083 C 117.167 42.306,117.176 42.333,117.583 42.333 C 117.977 42.333,118.000 42.383,118.000 43.250 L 118.000 44.167 105.167 44.167 L 92.333 44.167 92.333 43.262 C 92.333 42.450,92.372 42.351,92.708 42.303 C 93.052 42.254,93.087 42.150,93.132 41.052 C 93.176 39.962,93.214 39.850,93.549 39.802 C 93.860 39.758,93.924 39.629,93.967 38.969 C 94.010 38.310,94.075 38.179,94.384 38.135 C 94.643 38.099,94.765 37.949,94.803 37.625 C 94.839 37.312,94.952 37.167,95.160 37.167 C 95.520 37.167,95.667 36.849,95.667 36.070 C 95.667 35.573,95.720 35.500,96.083 35.500 C 96.417 35.500,96.500 35.417,96.500 35.083 C 96.500 34.720,96.573 34.667,97.070 34.667 C 97.849 34.667,98.167 34.520,98.167 34.160 C 98.167 33.952,98.312 33.839,98.625 33.803 C 98.949 33.765,99.099 33.643,99.135 33.384 C 99.179 33.075,99.310 33.010,99.969 32.967 C 100.634 32.924,100.758 32.861,100.803 32.542 C 100.854 32.185,100.929 32.167,102.324 32.167 C 104.258 32.167,104.853 32.039,104.974 31.600 C 105.058 31.292,105.077 31.286,105.132 31.551 C 105.167 31.717,105.381 31.923,105.608 32.009 M66.667 32.421 C 66.667 32.705,67.309 33.000,67.928 33.000 C 68.180 33.000,68.333 33.096,68.333 33.254 C 68.333 33.531,68.971 33.833,69.555 33.833 C 69.775 33.833,69.987 33.983,70.085 34.208 C 70.213 34.498,70.411 34.595,70.958 34.635 C 71.584 34.680,71.667 34.733,71.667 35.093 C 71.667 35.413,71.753 35.500,72.072 35.500 C 72.391 35.500,72.489 35.598,72.531 35.958 C 72.568 36.282,72.690 36.432,72.948 36.469 C 73.175 36.501,73.332 36.658,73.365 36.885 C 73.401 37.143,73.551 37.265,73.875 37.303 C 74.306 37.352,74.333 37.405,74.333 38.178 C 74.333 38.944,74.362 39.000,74.750 39.000 C 75.139 39.000,75.167 39.056,75.167 39.833 C 75.167 40.611,75.194 40.667,75.583 40.667 L 76.000 40.667 76.000 46.238 L 76.000 51.810 75.625 51.863 C 75.299 51.910,75.243 52.030,75.200 52.781 C 75.157 53.526,75.099 53.653,74.783 53.698 C 74.473 53.742,74.409 53.872,74.366 54.542 C 74.318 55.295,74.292 55.333,73.824 55.333 C 73.412 55.333,73.333 55.400,73.333 55.750 C 73.333 56.083,73.250 56.167,72.917 56.167 C 72.583 56.167,72.500 56.250,72.500 56.583 C 72.500 56.917,72.417 57.000,72.083 57.000 C 71.750 57.000,71.667 57.083,71.667 57.417 C 71.667 57.806,71.611 57.833,70.833 57.833 C 70.061 57.833,70.000 57.863,70.000 58.241 C 70.000 58.609,69.923 58.653,69.208 58.699 C 68.533 58.743,68.409 58.805,68.363 59.125 C 68.319 59.436,68.205 59.500,67.697 59.502 C 66.546 59.505,65.866 59.689,65.780 60.019 C 65.679 60.406,62.957 60.500,62.717 60.125 C 62.447 59.703,61.811 59.500,60.764 59.500 C 59.777 59.500,59.686 59.470,59.637 59.125 C 59.594 58.823,59.460 58.740,58.955 58.698 C 58.509 58.661,58.251 58.529,58.061 58.240 C 57.902 57.997,57.635 57.833,57.397 57.833 C 57.085 57.833,57.000 57.745,57.000 57.417 C 57.000 57.083,56.917 57.000,56.583 57.000 C 56.250 57.000,56.167 56.917,56.167 56.583 C 56.167 56.250,56.083 56.167,55.750 56.167 C 55.417 56.167,55.333 56.083,55.333 55.750 C 55.333 55.417,55.250 55.333,54.917 55.333 C 54.583 55.333,54.500 55.250,54.500 54.917 C 54.500 54.583,54.417 54.500,54.083 54.500 C 53.700 54.500,53.667 54.439,53.667 53.746 C 53.667 53.104,53.605 52.965,53.250 52.803 C 52.945 52.664,52.833 52.484,52.833 52.129 C 52.833 51.519,52.562 51.000,52.244 51.000 C 52.057 51.000,52.000 50.768,52.000 50.006 C 52.000 48.950,51.598 47.833,51.219 47.833 C 50.753 47.833,50.924 44.222,51.395 44.104 C 51.865 43.986,52.000 43.478,52.000 41.824 C 52.000 40.775,52.028 40.686,52.375 40.637 C 52.694 40.591,52.758 40.467,52.800 39.802 C 52.843 39.143,52.908 39.013,53.217 38.969 C 53.481 38.931,53.599 38.783,53.638 38.438 C 53.668 38.175,53.874 37.792,54.096 37.586 C 54.318 37.380,54.500 37.057,54.500 36.867 C 54.500 36.637,54.624 36.506,54.875 36.470 C 55.144 36.432,55.265 36.287,55.303 35.958 C 55.344 35.598,55.442 35.500,55.761 35.500 C 56.083 35.500,56.167 35.414,56.167 35.083 C 56.167 34.750,56.250 34.667,56.583 34.667 C 56.917 34.667,57.000 34.583,57.000 34.250 C 57.000 33.867,57.061 33.833,57.754 33.833 C 58.392 33.833,58.536 33.771,58.693 33.425 C 58.846 33.091,59.019 33.007,59.648 32.967 C 60.300 32.924,60.425 32.860,60.470 32.542 C 60.539 32.053,66.667 31.934,66.667 32.421 M233.658 46.667 L 236.464 46.667 236.568 47.083 C 236.671 47.491,236.707 47.500,238.253 47.500 L 239.833 47.500 239.833 50.988 L 239.833 54.477 239.458 54.530 C 239.217 54.564,239.064 54.717,239.030 54.958 C 238.996 55.198,238.862 55.333,238.658 55.333 C 238.457 55.333,238.301 55.487,238.235 55.750 C 238.170 56.009,238.012 56.167,237.818 56.167 C 237.628 56.167,237.467 56.323,237.406 56.568 C 237.350 56.788,237.156 57.008,236.974 57.055 C 236.791 57.103,236.601 57.297,236.552 57.488 C 236.492 57.715,236.326 57.833,236.064 57.833 C 235.754 57.833,235.667 57.923,235.667 58.241 C 235.667 58.609,235.590 58.653,234.875 58.699 C 234.199 58.743,234.076 58.805,234.030 59.125 C 233.981 59.469,233.889 59.500,232.919 59.500 C 231.645 59.500,231.333 59.602,231.333 60.018 C 231.333 60.519,225.353 60.503,225.040 60.002 C 224.916 59.803,224.567 59.628,224.166 59.564 C 223.681 59.486,223.500 59.378,223.500 59.163 C 223.500 58.813,223.177 58.667,222.403 58.667 C 221.906 58.667,221.833 58.613,221.833 58.250 C 221.833 57.919,221.749 57.833,221.426 57.833 C 221.058 57.833,221.013 57.756,220.967 57.042 C 220.924 56.366,220.862 56.242,220.542 56.197 C 220.202 56.148,220.167 56.053,220.167 55.169 C 220.167 53.979,220.059 53.667,219.649 53.667 C 219.378 53.667,219.333 53.538,219.333 52.750 C 219.333 51.883,219.356 51.833,219.750 51.833 C 220.139 51.833,220.167 51.778,220.167 51.000 C 220.167 50.222,220.194 50.167,220.583 50.167 C 220.913 50.167,221.000 50.083,221.000 49.762 C 221.000 49.468,221.104 49.342,221.375 49.303 C 221.644 49.265,221.765 49.120,221.803 48.792 C 221.852 48.361,221.905 48.333,222.678 48.333 C 223.439 48.333,223.500 48.303,223.500 47.925 C 223.500 47.551,223.571 47.513,224.375 47.467 C 225.137 47.423,225.257 47.368,225.303 47.042 C 225.356 46.672,225.394 46.667,227.777 46.667 C 230.074 46.667,230.202 46.649,230.287 46.327 L 230.376 45.986 230.614 46.327 C 230.838 46.646,231.022 46.667,233.658 46.667 " stroke="none" fill="#fcdc34" fill-rule="evenodd"></path><path id="path2" d="" stroke="none" fill="#fcec100" fill-rule="evenodd"></path><path id="path3" d="" stroke="none" fill="#fcec100" fill-rule="evenodd"></path><path id="path4" d="" stroke="none" fill="#fcec100" fill-rule="evenodd"></path></g></svg>