<?xml version="1.0" encoding="UTF-8"?>
<!DOCTYPE svg PUBLIC "-//W3C//DTD SVG 1.1//EN" "http://www.w3.org/Graphics/SVG/1.1/DTD/svg11.dtd">
<svg xmlns="http://www.w3.org/2000/svg" version="1.1" width="1917px" height="1285px" style="shape-rendering:geometricPrecision; text-rendering:geometricPrecision; image-rendering:optimizeQuality; fill-rule:evenodd; clip-rule:evenodd" xmlns:xlink="http://www.w3.org/1999/xlink">
<g><path style="opacity:1" fill="#2559ff" d="M -0.5,-0.5 C 637.167,-0.5 1274.83,-0.5 1912.5,-0.5C 1912.5,97.1667 1912.5,194.833 1912.5,292.5C 1913.83,292.5 1915.17,292.5 1916.5,292.5C 1916.5,393.5 1916.5,494.5 1916.5,595.5C 1785.08,682.025 1643.08,746.192 1490.5,788C 1295.39,841.308 1096.73,864.642 894.5,858C 689.528,853.338 490.528,816.671 297.5,748C 191.794,709.649 92.4605,659.482 -0.5,597.5C -0.5,398.167 -0.5,198.833 -0.5,-0.5 Z"/></g>
<g><path style="opacity:0.835" fill="#3565ff" d="M 1916.5,595.5 C 1916.5,595.833 1916.5,596.167 1916.5,596.5C 1804.3,671.093 1683.63,728.927 1554.5,770C 1359.57,831.205 1159.9,861.038 955.5,859.5C 739.489,861.276 529.156,827.776 324.5,759C 209.035,719.598 100.702,666.432 -0.5,599.5C -0.5,598.833 -0.5,598.167 -0.5,597.5C 92.4605,659.482 191.794,709.649 297.5,748C 490.528,816.671 689.528,853.338 894.5,858C 1096.73,864.642 1295.39,841.308 1490.5,788C 1643.08,746.192 1785.08,682.025 1916.5,595.5 Z"/></g>
<g><path style="opacity:0.282" fill="#f0f7fa" d="M 1916.5,596.5 C 1916.5,781.5 1916.5,966.5 1916.5,1151.5C 1809.78,1079.05 1696.28,1022.72 1576,982.5C 1557.84,975.89 1539.5,969.89 1521,964.5C 1518,963.167 1515,961.833 1512,960.5C 1505.2,959.866 1498.2,957.866 1491,954.5C 1488.61,955.256 1486.44,954.589 1484.5,952.5C 1482.02,953.334 1479.86,952.667 1478,950.5C 1473.98,950.987 1470.15,949.987 1466.5,947.5C 1465.91,947.709 1465.41,948.043 1465,948.5C 1461.52,947.412 1458.19,946.079 1455,944.5C 1454.67,944.833 1454.33,945.167 1454,945.5C 1452.92,943.606 1451.59,943.273 1450,944.5C 1438.22,941.096 1426.39,937.762 1414.5,934.5C 1413.2,935.718 1412.2,935.385 1411.5,933.5C 1409.94,934.347 1408.44,934.014 1407,932.5C 1406.67,932.833 1406.33,933.167 1406,933.5C 1399.21,931.454 1392.37,929.454 1385.5,927.5C 1382.57,928.062 1379.73,927.396 1377,925.5C 1376.44,926.022 1375.77,926.355 1375,926.5C 1368.67,925.232 1362.84,923.565 1357.5,921.5C 1354.63,921.554 1351.8,921.554 1349,921.5C 1347.68,920.12 1346.34,919.786 1345,920.5C 1335.41,917.798 1325.75,915.465 1316,913.5C 1313.1,913.217 1310.1,913.217 1307,913.5C 1300.59,912.045 1294.26,910.378 1288,908.5C 1285.46,908.587 1282.96,908.587 1280.5,908.5C 1279.25,907.96 1278.09,907.293 1277,906.5C 1272.7,906.301 1268.7,906.301 1265,906.5C 1264.67,905.833 1264.33,905.167 1264,904.5C 1259.7,905.376 1255.2,904.709 1250.5,902.5C 1246.57,902.616 1242.74,902.616 1239,902.5C 1237.43,900.832 1235.77,900.498 1234,901.5C 1224.16,900.377 1214.49,898.711 1205,896.5C 1202.64,897.512 1199.97,897.179 1197,895.5C 1192.77,895.626 1188.61,895.626 1184.5,895.5C 1183.52,895.023 1182.69,894.357 1182,893.5C 1180.76,893.461 1179.42,893.795 1178,894.5C 1172.59,893.742 1167.25,892.742 1162,891.5C 1159.22,892.648 1156.56,892.314 1154,890.5C 1149.41,891.416 1144.58,891.083 1139.5,889.5C 1138.03,889.723 1136.53,890.056 1135,890.5C 1134,889.833 1133,889.167 1132,888.5C 1130.63,888.243 1129.13,888.577 1127.5,889.5C 1118.93,888.341 1110.43,887.341 1102,886.5C 1100.88,886.665 1099.72,886.998 1098.5,887.5C 1089.01,886.134 1079.51,885.134 1070,884.5C 1068.73,884.616 1067.4,884.949 1066,885.5C 1063.67,884.833 1061.33,884.167 1059,883.5C 1044.03,883.269 1029.36,883.269 1015,883.5C 1013,882.833 1011,882.167 1009,881.5C 971,881.5 933,881.5 895,881.5C 893,882.167 891,882.833 889,883.5C 881.351,883.526 873.351,883.192 865,882.5C 855.895,883.9 846.895,884.9 838,885.5C 834.432,885.524 830.765,885.19 827,884.5C 819.87,885.385 812.703,886.385 805.5,887.5C 804.284,886.998 803.117,886.665 802,886.5C 799.333,887.167 796.667,887.833 794,888.5C 787.922,888.101 780.922,888.101 773,888.5C 771.559,889.26 770.059,889.926 768.5,890.5C 766.16,889.785 763.66,889.452 761,889.5C 748.529,892.292 736.195,893.625 724,893.5C 721.631,895.287 719.131,895.621 716.5,894.5C 711.538,896.104 706.704,897.104 702,897.5C 701,897.167 700,896.833 699,896.5C 694.452,897.905 689.785,898.905 685,899.5C 682.36,898.884 679.694,899.217 677,900.5C 676,900.167 675,899.833 674,899.5C 672.604,901.527 670.938,901.86 669,900.5C 664.704,901.685 660.37,902.685 656,903.5C 655.667,903.167 655.333,902.833 655,902.5C 651.096,903.904 647.096,904.904 643,905.5C 641.657,904.786 640.324,905.12 639,906.5C 637.732,906.384 636.398,906.051 635,905.5C 633.559,906.26 632.059,906.926 630.5,907.5C 629.284,906.998 628.117,906.665 627,906.5C 625.806,907.43 624.473,908.097 623,908.5C 620.406,908.761 617.74,908.761 615,908.5C 614.147,910.125 613.147,910.458 612,909.5C 604.155,911.465 596.489,913.132 589,914.5C 588.586,914.043 588.086,913.709 587.5,913.5C 584.429,913.923 581.262,914.923 578,916.5C 576.221,915.521 574.555,915.854 573,917.5C 571.135,916.632 569.302,916.966 567.5,918.5C 565.378,918.623 563.211,918.623 561,918.5C 560.667,919.167 560.333,919.833 560,920.5C 557.303,920.076 554.303,920.076 551,920.5C 549.915,921.293 548.748,921.96 547.5,922.5C 545.297,922.413 543.13,922.413 541,922.5C 536.768,924.418 532.601,925.751 528.5,926.5C 514.654,928.92 500.488,932.253 486,936.5C 485.586,936.043 485.086,935.709 484.5,935.5C 470.048,939.927 456.048,943.927 442.5,947.5C 441.094,946.332 439.928,946.665 439,948.5C 438.667,948.167 438.333,947.833 438,947.5C 435.701,949.532 433.201,950.199 430.5,949.5C 427.169,951.869 423.669,952.869 420,952.5C 411.592,955.738 402.759,958.738 393.5,961.5C 392.914,961.291 392.414,960.957 392,960.5C 389.148,962.286 386.481,963.62 384,964.5C 366.058,969.357 347.392,975.357 328,982.5C 327.667,982.167 327.333,981.833 327,981.5C 323.819,983.529 320.485,985.196 317,986.5C 316.667,986.167 316.333,985.833 316,985.5C 314.184,987.441 312.184,988.108 310,987.5C 303.225,990.729 296.392,993.729 289.5,996.5C 288.914,996.291 288.414,995.957 288,995.5C 285.896,997.738 283.562,998.738 281,998.5C 278.617,1000.95 275.951,1001.95 273,1001.5C 272.395,1003.48 271.395,1003.81 270,1002.5C 269.683,1004.3 269.016,1004.63 268,1003.5C 266.54,1005.42 264.873,1006.09 263,1005.5C 261.184,1007.44 259.184,1008.11 257,1007.5C 254.24,1010.06 251.24,1011.4 248,1011.5C 245.693,1013.61 243.36,1014.94 241,1015.5C 155.966,1049.93 75.4664,1092.6 -0.5,1143.5C -0.5,962.167 -0.5,780.833 -0.5,599.5C 100.702,666.432 209.035,719.598 324.5,759C 529.156,827.776 739.489,861.276 955.5,859.5C 1159.9,861.038 1359.57,831.205 1554.5,770C 1683.63,728.927 1804.3,671.093 1916.5,596.5 Z"/></g>
<g><path style="opacity:0.118" fill="#eef6f7" d="M 1916.5,1151.5 C 1916.5,1188.83 1916.5,1226.17 1916.5,1263.5C 1820.03,1197.26 1716.36,1144.09 1605.5,1104C 1414.1,1035.72 1216.77,999.055 1013.5,994C 792.579,986.781 576.579,1015.78 365.5,1081C 250.757,1117.38 142.09,1166.71 39.5,1229C 25.9665,1237.6 12.6331,1246.43 -0.5,1255.5C -0.5,1218.17 -0.5,1180.83 -0.5,1143.5C 75.4664,1092.6 155.966,1049.93 241,1015.5C 243.36,1014.94 245.693,1013.61 248,1011.5C 251.24,1011.4 254.24,1010.06 257,1007.5C 259.184,1008.11 261.184,1007.44 263,1005.5C 264.873,1006.09 266.54,1005.42 268,1003.5C 269.016,1004.63 269.683,1004.3 270,1002.5C 271.395,1003.81 272.395,1003.48 273,1001.5C 275.951,1001.95 278.617,1000.95 281,998.5C 283.562,998.738 285.896,997.738 288,995.5C 288.414,995.957 288.914,996.291 289.5,996.5C 296.392,993.729 303.225,990.729 310,987.5C 312.184,988.108 314.184,987.441 316,985.5C 316.333,985.833 316.667,986.167 317,986.5C 320.485,985.196 323.819,983.529 327,981.5C 327.333,981.833 327.667,982.167 328,982.5C 347.392,975.357 366.058,969.357 384,964.5C 386.481,963.62 389.148,962.286 392,960.5C 392.414,960.957 392.914,961.291 393.5,961.5C 402.759,958.738 411.592,955.738 420,952.5C 423.669,952.869 427.169,951.869 430.5,949.5C 433.201,950.199 435.701,949.532 438,947.5C 438.333,947.833 438.667,948.167 439,948.5C 439.928,946.665 441.094,946.332 442.5,947.5C 456.048,943.927 470.048,939.927 484.5,935.5C 485.086,935.709 485.586,936.043 486,936.5C 500.488,932.253 514.654,928.92 528.5,926.5C 532.601,925.751 536.768,924.418 541,922.5C 543.13,922.413 545.297,922.413 547.5,922.5C 548.748,921.96 549.915,921.293 551,920.5C 554.303,920.076 557.303,920.076 560,920.5C 560.333,919.833 560.667,919.167 561,918.5C 563.211,918.623 565.378,918.623 567.5,918.5C 569.302,916.966 571.135,916.632 573,917.5C 574.555,915.854 576.221,915.521 578,916.5C 581.262,914.923 584.429,913.923 587.5,913.5C 588.086,913.709 588.586,914.043 589,914.5C 596.489,913.132 604.155,911.465 612,909.5C 613.147,910.458 614.147,910.125 615,908.5C 617.74,908.761 620.406,908.761 623,908.5C 624.473,908.097 625.806,907.43 627,906.5C 628.117,906.665 629.284,906.998 630.5,907.5C 632.059,906.926 633.559,906.26 635,905.5C 636.398,906.051 637.732,906.384 639,906.5C 640.324,905.12 641.657,904.786 643,905.5C 647.096,904.904 651.096,903.904 655,902.5C 655.333,902.833 655.667,903.167 656,903.5C 660.37,902.685 664.704,901.685 669,900.5C 670.938,901.86 672.604,901.527 674,899.5C 675,899.833 676,900.167 677,900.5C 679.694,899.217 682.36,898.884 685,899.5C 689.785,898.905 694.452,897.905 699,896.5C 700,896.833 701,897.167 702,897.5C 706.704,897.104 711.538,896.104 716.5,894.5C 719.131,895.621 721.631,895.287 724,893.5C 736.195,893.625 748.529,892.292 761,889.5C 763.66,889.452 766.16,889.785 768.5,890.5C 770.059,889.926 771.559,889.26 773,888.5C 780.922,888.101 787.922,888.101 794,888.5C 796.667,887.833 799.333,887.167 802,886.5C 803.117,886.665 804.284,886.998 805.5,887.5C 812.703,886.385 819.87,885.385 827,884.5C 830.765,885.19 834.432,885.524 838,885.5C 846.895,884.9 855.895,883.9 865,882.5C 873.351,883.192 881.351,883.526 889,883.5C 891,882.833 893,882.167 895,881.5C 933,881.5 971,881.5 1009,881.5C 1011,882.167 1013,882.833 1015,883.5C 1029.36,883.269 1044.03,883.269 1059,883.5C 1061.33,884.167 1063.67,884.833 1066,885.5C 1067.4,884.949 1068.73,884.616 1070,884.5C 1079.51,885.134 1089.01,886.134 1098.5,887.5C 1099.72,886.998 1100.88,886.665 1102,886.5C 1110.43,887.341 1118.93,888.341 1127.5,889.5C 1129.13,888.577 1130.63,888.243 1132,888.5C 1133,889.167 1134,889.833 1135,890.5C 1136.53,890.056 1138.03,889.723 1139.5,889.5C 1144.58,891.083 1149.41,891.416 1154,890.5C 1156.56,892.314 1159.22,892.648 1162,891.5C 1167.25,892.742 1172.59,893.742 1178,894.5C 1179.42,893.795 1180.76,893.461 1182,893.5C 1182.69,894.357 1183.52,895.023 1184.5,895.5C 1188.61,895.626 1192.77,895.626 1197,895.5C 1199.97,897.179 1202.64,897.512 1205,896.5C 1214.49,898.711 1224.16,900.377 1234,901.5C 1235.77,900.498 1237.43,900.832 1239,902.5C 1242.74,902.616 1246.57,902.616 1250.5,902.5C 1255.2,904.709 1259.7,905.376 1264,904.5C 1264.33,905.167 1264.67,905.833 1265,906.5C 1268.7,906.301 1272.7,906.301 1277,906.5C 1278.09,907.293 1279.25,907.96 1280.5,908.5C 1282.96,908.587 1285.46,908.587 1288,908.5C 1294.26,910.378 1300.59,912.045 1307,913.5C 1310.1,913.217 1313.1,913.217 1316,913.5C 1325.75,915.465 1335.41,917.798 1345,920.5C 1346.34,919.786 1347.68,920.12 1349,921.5C 1351.8,921.554 1354.63,921.554 1357.5,921.5C 1362.84,923.565 1368.67,925.232 1375,926.5C 1375.77,926.355 1376.44,926.022 1377,925.5C 1379.73,927.396 1382.57,928.062 1385.5,927.5C 1392.37,929.454 1399.21,931.454 1406,933.5C 1406.33,933.167 1406.67,932.833 1407,932.5C 1408.44,934.014 1409.94,934.347 1411.5,933.5C 1412.2,935.385 1413.2,935.718 1414.5,934.5C 1426.39,937.762 1438.22,941.096 1450,944.5C 1451.59,943.273 1452.92,943.606 1454,945.5C 1454.33,945.167 1454.67,944.833 1455,944.5C 1458.19,946.079 1461.52,947.412 1465,948.5C 1465.41,948.043 1465.91,947.709 1466.5,947.5C 1470.15,949.987 1473.98,950.987 1478,950.5C 1479.86,952.667 1482.02,953.334 1484.5,952.5C 1486.44,954.589 1488.61,955.256 1491,954.5C 1498.2,957.866 1505.2,959.866 1512,960.5C 1515,961.833 1518,963.167 1521,964.5C 1539.5,969.89 1557.84,975.89 1576,982.5C 1696.28,1022.72 1809.78,1079.05 1916.5,1151.5 Z"/></g>
</svg>
